#usda 1.0
(
    defaultPrim = "AquilaSovereign"
    doc = "AQUILA Sovereign Platform — full BOM-to-USD conversion. Generated 2026-08-01T18:10:45Z"
    metersPerUnit = 0.001
    upAxis = "Y"
    framesPerSecond = 30
    startTimeCode = 1
    endTimeCode = 900
)

def Xform "AquilaSovereign"
{
    string mission = "AQUILA Sovereign — Orphan-Well Leak Detection + Bio-Intel"
    string bomVersion = "Reconciled v2 7-5-26"
    string platform = "Firefly Heavy-Lift Hexacopter"
    int totalComponents = 50
    double totalWeightGrams = 13600
    double phase1CostUSD = 56252

    def Scope "Metadata"
    {
        string generatedBy = "Aquila BOM USD Exporter v1.0"
        string timestamp = "2026-08-01T18:10:45Z"
        string source = "Aquila_Master_BOM_Reconciled_v2 7-5-26.xlsx"
        string coordinateSystem = "Local frame (mm), Y-up"
        string[] phases = ["Phase 1 — Operational", "Phase 2 — Firefly Hybrid Mount", "Phase 3 — Bio-Intel DNA Stack"]
    }

    def Scope "Materials"
    {
        def Material "DroneBody_Mat"
        {
            token outputs:surface.connect = </AquilaSovereign/Materials/DroneBody_Mat/Shader.outputs:surface>
            def Shader "Shader"
            {
                uniform token info:id = "UsdPreviewSurface"
                color3f inputs:diffuseColor = (0.150, 0.150, 0.180)
                float inputs:metallic = 0.5
                float inputs:roughness = 0.4
                token outputs:surface
            }
        }
        def Material "Motor_Mat"
        {
            token outputs:surface.connect = </AquilaSovereign/Materials/Motor_Mat/Shader.outputs:surface>
            def Shader "Shader"
            {
                uniform token info:id = "UsdPreviewSurface"
                color3f inputs:diffuseColor = (0.600, 0.600, 0.650)
                float inputs:metallic = 0.8
                float inputs:roughness = 0.2
                token outputs:surface
            }
        }
        def Material "Prop_Mat"
        {
            token outputs:surface.connect = </AquilaSovereign/Materials/Prop_Mat/Shader.outputs:surface>
            def Shader "Shader"
            {
                uniform token info:id = "UsdPreviewSurface"
                color3f inputs:diffuseColor = (0.100, 0.100, 0.100)
                float inputs:metallic = 0.2
                float inputs:roughness = 0.3
                token outputs:surface
            }
        }
    }

    def Xform "DronePlatform"
    {
        string bomId = "UAV-001"
        string componentName = "Firefly Drone Platform"
        double weightGrams = 13600
        int armCount = 6

        def Mesh "CentralHub"
        {
            float3[] extent = [(-100.0, -100.0, -130.0), (100.0, 100.0, 130.0)]
            int[] faceVertexCounts = [4, 4, 4, 4, 4, 4]
            int[] faceVertexIndices = [0,1,2,3, 4,5,6,7, 0,4,5,1, 1,5,6,2, 2,6,7,3, 3,7,4,0]
            point3f[] points = [(-100.0,-100.0,-130.0),(100.0,-100.0,-130.0),(100.0,100.0,-130.0),(-100.0,100.0,-130.0),(-100.0,-100.0,130.0),(100.0,-100.0,130.0),(100.0,100.0,130.0),(-100.0,100.0,130.0)]
            rel material:binding = </AquilaSovereign/Materials/DroneBody_Mat>
        }

        def Mesh "Arm_00"
        {
            float3[] extent = [(-290.0, -20.0, -20.0), (290.0, 20.0, 20.0)]
            int[] faceVertexCounts = [4, 4, 4, 4, 4, 4]
            int[] faceVertexIndices = [0,1,2,3, 4,5,6,7, 0,4,5,1, 1,5,6,2, 2,6,7,3, 3,7,4,0]
            point3f[] points = [(-290.0,-20.0,-20.0),(290.0,-20.0,-20.0),(290.0,20.0,-20.0),(-290.0,20.0,-20.0),(-290.0,-20.0,20.0),(290.0,-20.0,20.0),(290.0,20.0,20.0),(-290.0,20.0,20.0)]
            double3 xformOp:rotateXYZ = (0, 0, 0.00)
            matrix4d xformOp:transform = ( (1,0,0,0), (0,1,0,0), (0,0,1,0), (290.00,0.00,0.00,1) )
            token[] xformOpOrder = ["xformOp:transform", "xformOp:rotateXYZ"]
            rel material:binding = </AquilaSovereign/Materials/DroneBody_Mat>
        }
        def Mesh "Motor_00"
        {
            float3[] extent = [(-30, -30, -30.0), (30, 30, 30.0)]
            int[] faceVertexCounts = [4, 4, 4, 4, 4, 4, 4, 4, 8, 8]
            int[] faceVertexIndices = [0, 2, 3, 1, 2, 4, 5, 3, 4, 6, 7, 5, 6, 8, 9, 7, 8, 10, 11, 9, 10, 12, 13, 11, 12, 14, 15, 13, 14, 0, 1, 15, 0, 2, 4, 6, 8, 10, 12, 14, 1, 3, 5, 7, 9, 11, 13, 15]
            point3f[] points = [(30.0,0.0,-30.0), (30.0,0.0,30.0), (21.2,21.2,-30.0), (21.2,21.2,30.0), (0.0,30.0,-30.0), (0.0,30.0,30.0), (-21.2,21.2,-30.0), (-21.2,21.2,30.0), (-30.0,0.0,-30.0), (-30.0,0.0,30.0), (-21.2,-21.2,-30.0), (-21.2,-21.2,30.0), (-0.0,-30.0,-30.0), (-0.0,-30.0,30.0), (21.2,-21.2,-30.0), (21.2,-21.2,30.0)]
            matrix4d xformOp:transform = ( (1,0,0,0), (0,1,0,0), (0,0,1,0), (580.00,0.00,160.00,1) )
            token[] xformOpOrder = ["xformOp:transform"]
            rel material:binding = </AquilaSovereign/Materials/Motor_Mat>
        }
        def Mesh "Propeller_00"
        {
            float3[] extent = [(-400.0, -400.0, -1.5), (400.0, 400.0, 1.5)]
            int[] faceVertexCounts = [4, 4, 4, 4, 4, 4, 4, 4, 8, 8]
            int[] faceVertexIndices = [0, 2, 3, 1, 2, 4, 5, 3, 4, 6, 7, 5, 6, 8, 9, 7, 8, 10, 11, 9, 10, 12, 13, 11, 12, 14, 15, 13, 14, 0, 1, 15, 0, 2, 4, 6, 8, 10, 12, 14, 1, 3, 5, 7, 9, 11, 13, 15]
            point3f[] points = [(400.0,0.0,-1.5), (400.0,0.0,1.5), (282.8,282.8,-1.5), (282.8,282.8,1.5), (0.0,400.0,-1.5), (0.0,400.0,1.5), (-282.8,282.8,-1.5), (-282.8,282.8,1.5), (-400.0,0.0,-1.5), (-400.0,0.0,1.5), (-282.8,-282.8,-1.5), (-282.8,-282.8,1.5), (-0.0,-400.0,-1.5), (-0.0,-400.0,1.5), (282.8,-282.8,-1.5), (282.8,-282.8,1.5)]
            matrix4d xformOp:transform = ( (1,0,0,0), (0,1,0,0), (0,0,1,0), (580.00,0.00,195.00,1) )
            token[] xformOpOrder = ["xformOp:transform"]
            rel material:binding = </AquilaSovereign/Materials/Prop_Mat>
            float xformOp:rotateZ = 0
            token[] xformOpOrder = ["xformOp:transform", "xformOp:rotateZ"]
            float xformOp:rotateZ.timeSamples = {
                1: 24.0,
                11: 264.0,
                21: 144.0,
                31: 24.0,
                41: 264.0,
                51: 144.0,
                61: 24.0,
                71: 264.0,
                81: 144.0,
                91: 24.0,
                101: 264.0,
                111: 144.0,
                121: 24.0,
                131: 264.0,
                141: 144.0,
                151: 24.0,
                161: 264.0,
                171: 144.0,
                181: 24.0,
                191: 264.0,
                201: 144.0,
                211: 24.0,
                221: 264.0,
                231: 144.0,
                241: 24.0,
                251: 264.0,
                261: 144.0,
                271: 24.0,
                281: 264.0,
                291: 144.0,
                301: 24.0,
                311: 264.0,
                321: 144.0,
                331: 24.0,
                341: 264.0,
                351: 144.0,
                361: 24.0,
                371: 264.0,
                381: 144.0,
                391: 24.0,
                401: 264.0,
                411: 144.0,
                421: 24.0,
                431: 264.0,
                441: 144.0,
                451: 24.0,
                461: 264.0,
                471: 144.0,
                481: 24.0,
                491: 264.0,
                501: 144.0,
                511: 24.0,
                521: 264.0,
                531: 144.0,
                541: 24.0,
                551: 264.0,
                561: 144.0,
                571: 24.0,
                581: 264.0,
                591: 144.0,
                601: 24.0,
                611: 264.0,
                621: 144.0,
                631: 24.0,
                641: 264.0,
                651: 144.0,
                661: 24.0,
                671: 264.0,
                681: 144.0,
                691: 24.0,
                701: 264.0,
                711: 144.0,
                721: 24.0,
                731: 264.0,
                741: 144.0,
                751: 24.0,
                761: 264.0,
                771: 144.0,
                781: 24.0,
                791: 264.0,
                801: 144.0,
                811: 24.0,
                821: 264.0,
                831: 144.0,
                841: 24.0,
                851: 264.0,
                861: 144.0,
                871: 24.0,
                881: 264.0,
                891: 144.0,
            }
        }

        def Mesh "Arm_01"
        {
            float3[] extent = [(-290.0, -20.0, -20.0), (290.0, 20.0, 20.0)]
            int[] faceVertexCounts = [4, 4, 4, 4, 4, 4]
            int[] faceVertexIndices = [0,1,2,3, 4,5,6,7, 0,4,5,1, 1,5,6,2, 2,6,7,3, 3,7,4,0]
            point3f[] points = [(-290.0,-20.0,-20.0),(290.0,-20.0,-20.0),(290.0,20.0,-20.0),(-290.0,20.0,-20.0),(-290.0,-20.0,20.0),(290.0,-20.0,20.0),(290.0,20.0,20.0),(-290.0,20.0,20.0)]
            double3 xformOp:rotateXYZ = (0, 0, 60.00)
            matrix4d xformOp:transform = ( (1,0,0,0), (0,1,0,0), (0,0,1,0), (145.00,251.15,0.00,1) )
            token[] xformOpOrder = ["xformOp:transform", "xformOp:rotateXYZ"]
            rel material:binding = </AquilaSovereign/Materials/DroneBody_Mat>
        }
        def Mesh "Motor_01"
        {
            float3[] extent = [(-30, -30, -30.0), (30, 30, 30.0)]
            int[] faceVertexCounts = [4, 4, 4, 4, 4, 4, 4, 4, 8, 8]
            int[] faceVertexIndices = [0, 2, 3, 1, 2, 4, 5, 3, 4, 6, 7, 5, 6, 8, 9, 7, 8, 10, 11, 9, 10, 12, 13, 11, 12, 14, 15, 13, 14, 0, 1, 15, 0, 2, 4, 6, 8, 10, 12, 14, 1, 3, 5, 7, 9, 11, 13, 15]
            point3f[] points = [(30.0,0.0,-30.0), (30.0,0.0,30.0), (21.2,21.2,-30.0), (21.2,21.2,30.0), (0.0,30.0,-30.0), (0.0,30.0,30.0), (-21.2,21.2,-30.0), (-21.2,21.2,30.0), (-30.0,0.0,-30.0), (-30.0,0.0,30.0), (-21.2,-21.2,-30.0), (-21.2,-21.2,30.0), (-0.0,-30.0,-30.0), (-0.0,-30.0,30.0), (21.2,-21.2,-30.0), (21.2,-21.2,30.0)]
            matrix4d xformOp:transform = ( (1,0,0,0), (0,1,0,0), (0,0,1,0), (290.00,502.29,160.00,1) )
            token[] xformOpOrder = ["xformOp:transform"]
            rel material:binding = </AquilaSovereign/Materials/Motor_Mat>
        }
        def Mesh "Propeller_01"
        {
            float3[] extent = [(-400.0, -400.0, -1.5), (400.0, 400.0, 1.5)]
            int[] faceVertexCounts = [4, 4, 4, 4, 4, 4, 4, 4, 8, 8]
            int[] faceVertexIndices = [0, 2, 3, 1, 2, 4, 5, 3, 4, 6, 7, 5, 6, 8, 9, 7, 8, 10, 11, 9, 10, 12, 13, 11, 12, 14, 15, 13, 14, 0, 1, 15, 0, 2, 4, 6, 8, 10, 12, 14, 1, 3, 5, 7, 9, 11, 13, 15]
            point3f[] points = [(400.0,0.0,-1.5), (400.0,0.0,1.5), (282.8,282.8,-1.5), (282.8,282.8,1.5), (0.0,400.0,-1.5), (0.0,400.0,1.5), (-282.8,282.8,-1.5), (-282.8,282.8,1.5), (-400.0,0.0,-1.5), (-400.0,0.0,1.5), (-282.8,-282.8,-1.5), (-282.8,-282.8,1.5), (-0.0,-400.0,-1.5), (-0.0,-400.0,1.5), (282.8,-282.8,-1.5), (282.8,-282.8,1.5)]
            matrix4d xformOp:transform = ( (1,0,0,0), (0,1,0,0), (0,0,1,0), (290.00,502.29,195.00,1) )
            token[] xformOpOrder = ["xformOp:transform"]
            rel material:binding = </AquilaSovereign/Materials/Prop_Mat>
            float xformOp:rotateZ = 0
            token[] xformOpOrder = ["xformOp:transform", "xformOp:rotateZ"]
            float xformOp:rotateZ.timeSamples = {
                1: 24.0,
                11: 264.0,
                21: 144.0,
                31: 24.0,
                41: 264.0,
                51: 144.0,
                61: 24.0,
                71: 264.0,
                81: 144.0,
                91: 24.0,
                101: 264.0,
                111: 144.0,
                121: 24.0,
                131: 264.0,
                141: 144.0,
                151: 24.0,
                161: 264.0,
                171: 144.0,
                181: 24.0,
                191: 264.0,
                201: 144.0,
                211: 24.0,
                221: 264.0,
                231: 144.0,
                241: 24.0,
                251: 264.0,
                261: 144.0,
                271: 24.0,
                281: 264.0,
                291: 144.0,
                301: 24.0,
                311: 264.0,
                321: 144.0,
                331: 24.0,
                341: 264.0,
                351: 144.0,
                361: 24.0,
                371: 264.0,
                381: 144.0,
                391: 24.0,
                401: 264.0,
                411: 144.0,
                421: 24.0,
                431: 264.0,
                441: 144.0,
                451: 24.0,
                461: 264.0,
                471: 144.0,
                481: 24.0,
                491: 264.0,
                501: 144.0,
                511: 24.0,
                521: 264.0,
                531: 144.0,
                541: 24.0,
                551: 264.0,
                561: 144.0,
                571: 24.0,
                581: 264.0,
                591: 144.0,
                601: 24.0,
                611: 264.0,
                621: 144.0,
                631: 24.0,
                641: 264.0,
                651: 144.0,
                661: 24.0,
                671: 264.0,
                681: 144.0,
                691: 24.0,
                701: 264.0,
                711: 144.0,
                721: 24.0,
                731: 264.0,
                741: 144.0,
                751: 24.0,
                761: 264.0,
                771: 144.0,
                781: 24.0,
                791: 264.0,
                801: 144.0,
                811: 24.0,
                821: 264.0,
                831: 144.0,
                841: 24.0,
                851: 264.0,
                861: 144.0,
                871: 24.0,
                881: 264.0,
                891: 144.0,
            }
        }

        def Mesh "Arm_02"
        {
            float3[] extent = [(-290.0, -20.0, -20.0), (290.0, 20.0, 20.0)]
            int[] faceVertexCounts = [4, 4, 4, 4, 4, 4]
            int[] faceVertexIndices = [0,1,2,3, 4,5,6,7, 0,4,5,1, 1,5,6,2, 2,6,7,3, 3,7,4,0]
            point3f[] points = [(-290.0,-20.0,-20.0),(290.0,-20.0,-20.0),(290.0,20.0,-20.0),(-290.0,20.0,-20.0),(-290.0,-20.0,20.0),(290.0,-20.0,20.0),(290.0,20.0,20.0),(-290.0,20.0,20.0)]
            double3 xformOp:rotateXYZ = (0, 0, 120.00)
            matrix4d xformOp:transform = ( (1,0,0,0), (0,1,0,0), (0,0,1,0), (-145.00,251.15,0.00,1) )
            token[] xformOpOrder = ["xformOp:transform", "xformOp:rotateXYZ"]
            rel material:binding = </AquilaSovereign/Materials/DroneBody_Mat>
        }
        def Mesh "Motor_02"
        {
            float3[] extent = [(-30, -30, -30.0), (30, 30, 30.0)]
            int[] faceVertexCounts = [4, 4, 4, 4, 4, 4, 4, 4, 8, 8]
            int[] faceVertexIndices = [0, 2, 3, 1, 2, 4, 5, 3, 4, 6, 7, 5, 6, 8, 9, 7, 8, 10, 11, 9, 10, 12, 13, 11, 12, 14, 15, 13, 14, 0, 1, 15, 0, 2, 4, 6, 8, 10, 12, 14, 1, 3, 5, 7, 9, 11, 13, 15]
            point3f[] points = [(30.0,0.0,-30.0), (30.0,0.0,30.0), (21.2,21.2,-30.0), (21.2,21.2,30.0), (0.0,30.0,-30.0), (0.0,30.0,30.0), (-21.2,21.2,-30.0), (-21.2,21.2,30.0), (-30.0,0.0,-30.0), (-30.0,0.0,30.0), (-21.2,-21.2,-30.0), (-21.2,-21.2,30.0), (-0.0,-30.0,-30.0), (-0.0,-30.0,30.0), (21.2,-21.2,-30.0), (21.2,-21.2,30.0)]
            matrix4d xformOp:transform = ( (1,0,0,0), (0,1,0,0), (0,0,1,0), (-290.00,502.29,160.00,1) )
            token[] xformOpOrder = ["xformOp:transform"]
            rel material:binding = </AquilaSovereign/Materials/Motor_Mat>
        }
        def Mesh "Propeller_02"
        {
            float3[] extent = [(-400.0, -400.0, -1.5), (400.0, 400.0, 1.5)]
            int[] faceVertexCounts = [4, 4, 4, 4, 4, 4, 4, 4, 8, 8]
            int[] faceVertexIndices = [0, 2, 3, 1, 2, 4, 5, 3, 4, 6, 7, 5, 6, 8, 9, 7, 8, 10, 11, 9, 10, 12, 13, 11, 12, 14, 15, 13, 14, 0, 1, 15, 0, 2, 4, 6, 8, 10, 12, 14, 1, 3, 5, 7, 9, 11, 13, 15]
            point3f[] points = [(400.0,0.0,-1.5), (400.0,0.0,1.5), (282.8,282.8,-1.5), (282.8,282.8,1.5), (0.0,400.0,-1.5), (0.0,400.0,1.5), (-282.8,282.8,-1.5), (-282.8,282.8,1.5), (-400.0,0.0,-1.5), (-400.0,0.0,1.5), (-282.8,-282.8,-1.5), (-282.8,-282.8,1.5), (-0.0,-400.0,-1.5), (-0.0,-400.0,1.5), (282.8,-282.8,-1.5), (282.8,-282.8,1.5)]
            matrix4d xformOp:transform = ( (1,0,0,0), (0,1,0,0), (0,0,1,0), (-290.00,502.29,195.00,1) )
            token[] xformOpOrder = ["xformOp:transform"]
            rel material:binding = </AquilaSovereign/Materials/Prop_Mat>
            float xformOp:rotateZ = 0
            token[] xformOpOrder = ["xformOp:transform", "xformOp:rotateZ"]
            float xformOp:rotateZ.timeSamples = {
                1: 24.0,
                11: 264.0,
                21: 144.0,
                31: 24.0,
                41: 264.0,
                51: 144.0,
                61: 24.0,
                71: 264.0,
                81: 144.0,
                91: 24.0,
                101: 264.0,
                111: 144.0,
                121: 24.0,
                131: 264.0,
                141: 144.0,
                151: 24.0,
                161: 264.0,
                171: 144.0,
                181: 24.0,
                191: 264.0,
                201: 144.0,
                211: 24.0,
                221: 264.0,
                231: 144.0,
                241: 24.0,
                251: 264.0,
                261: 144.0,
                271: 24.0,
                281: 264.0,
                291: 144.0,
                301: 24.0,
                311: 264.0,
                321: 144.0,
                331: 24.0,
                341: 264.0,
                351: 144.0,
                361: 24.0,
                371: 264.0,
                381: 144.0,
                391: 24.0,
                401: 264.0,
                411: 144.0,
                421: 24.0,
                431: 264.0,
                441: 144.0,
                451: 24.0,
                461: 264.0,
                471: 144.0,
                481: 24.0,
                491: 264.0,
                501: 144.0,
                511: 24.0,
                521: 264.0,
                531: 144.0,
                541: 24.0,
                551: 264.0,
                561: 144.0,
                571: 24.0,
                581: 264.0,
                591: 144.0,
                601: 24.0,
                611: 264.0,
                621: 144.0,
                631: 24.0,
                641: 264.0,
                651: 144.0,
                661: 24.0,
                671: 264.0,
                681: 144.0,
                691: 24.0,
                701: 264.0,
                711: 144.0,
                721: 24.0,
                731: 264.0,
                741: 144.0,
                751: 24.0,
                761: 264.0,
                771: 144.0,
                781: 24.0,
                791: 264.0,
                801: 144.0,
                811: 24.0,
                821: 264.0,
                831: 144.0,
                841: 24.0,
                851: 264.0,
                861: 144.0,
                871: 24.0,
                881: 264.0,
                891: 144.0,
            }
        }

        def Mesh "Arm_03"
        {
            float3[] extent = [(-290.0, -20.0, -20.0), (290.0, 20.0, 20.0)]
            int[] faceVertexCounts = [4, 4, 4, 4, 4, 4]
            int[] faceVertexIndices = [0,1,2,3, 4,5,6,7, 0,4,5,1, 1,5,6,2, 2,6,7,3, 3,7,4,0]
            point3f[] points = [(-290.0,-20.0,-20.0),(290.0,-20.0,-20.0),(290.0,20.0,-20.0),(-290.0,20.0,-20.0),(-290.0,-20.0,20.0),(290.0,-20.0,20.0),(290.0,20.0,20.0),(-290.0,20.0,20.0)]
            double3 xformOp:rotateXYZ = (0, 0, 180.00)
            matrix4d xformOp:transform = ( (1,0,0,0), (0,1,0,0), (0,0,1,0), (-290.00,0.00,0.00,1) )
            token[] xformOpOrder = ["xformOp:transform", "xformOp:rotateXYZ"]
            rel material:binding = </AquilaSovereign/Materials/DroneBody_Mat>
        }
        def Mesh "Motor_03"
        {
            float3[] extent = [(-30, -30, -30.0), (30, 30, 30.0)]
            int[] faceVertexCounts = [4, 4, 4, 4, 4, 4, 4, 4, 8, 8]
            int[] faceVertexIndices = [0, 2, 3, 1, 2, 4, 5, 3, 4, 6, 7, 5, 6, 8, 9, 7, 8, 10, 11, 9, 10, 12, 13, 11, 12, 14, 15, 13, 14, 0, 1, 15, 0, 2, 4, 6, 8, 10, 12, 14, 1, 3, 5, 7, 9, 11, 13, 15]
            point3f[] points = [(30.0,0.0,-30.0), (30.0,0.0,30.0), (21.2,21.2,-30.0), (21.2,21.2,30.0), (0.0,30.0,-30.0), (0.0,30.0,30.0), (-21.2,21.2,-30.0), (-21.2,21.2,30.0), (-30.0,0.0,-30.0), (-30.0,0.0,30.0), (-21.2,-21.2,-30.0), (-21.2,-21.2,30.0), (-0.0,-30.0,-30.0), (-0.0,-30.0,30.0), (21.2,-21.2,-30.0), (21.2,-21.2,30.0)]
            matrix4d xformOp:transform = ( (1,0,0,0), (0,1,0,0), (0,0,1,0), (-580.00,0.00,160.00,1) )
            token[] xformOpOrder = ["xformOp:transform"]
            rel material:binding = </AquilaSovereign/Materials/Motor_Mat>
        }
        def Mesh "Propeller_03"
        {
            float3[] extent = [(-400.0, -400.0, -1.5), (400.0, 400.0, 1.5)]
            int[] faceVertexCounts = [4, 4, 4, 4, 4, 4, 4, 4, 8, 8]
            int[] faceVertexIndices = [0, 2, 3, 1, 2, 4, 5, 3, 4, 6, 7, 5, 6, 8, 9, 7, 8, 10, 11, 9, 10, 12, 13, 11, 12, 14, 15, 13, 14, 0, 1, 15, 0, 2, 4, 6, 8, 10, 12, 14, 1, 3, 5, 7, 9, 11, 13, 15]
            point3f[] points = [(400.0,0.0,-1.5), (400.0,0.0,1.5), (282.8,282.8,-1.5), (282.8,282.8,1.5), (0.0,400.0,-1.5), (0.0,400.0,1.5), (-282.8,282.8,-1.5), (-282.8,282.8,1.5), (-400.0,0.0,-1.5), (-400.0,0.0,1.5), (-282.8,-282.8,-1.5), (-282.8,-282.8,1.5), (-0.0,-400.0,-1.5), (-0.0,-400.0,1.5), (282.8,-282.8,-1.5), (282.8,-282.8,1.5)]
            matrix4d xformOp:transform = ( (1,0,0,0), (0,1,0,0), (0,0,1,0), (-580.00,0.00,195.00,1) )
            token[] xformOpOrder = ["xformOp:transform"]
            rel material:binding = </AquilaSovereign/Materials/Prop_Mat>
            float xformOp:rotateZ = 0
            token[] xformOpOrder = ["xformOp:transform", "xformOp:rotateZ"]
            float xformOp:rotateZ.timeSamples = {
                1: 24.0,
                11: 264.0,
                21: 144.0,
                31: 24.0,
                41: 264.0,
                51: 144.0,
                61: 24.0,
                71: 264.0,
                81: 144.0,
                91: 24.0,
                101: 264.0,
                111: 144.0,
                121: 24.0,
                131: 264.0,
                141: 144.0,
                151: 24.0,
                161: 264.0,
                171: 144.0,
                181: 24.0,
                191: 264.0,
                201: 144.0,
                211: 24.0,
                221: 264.0,
                231: 144.0,
                241: 24.0,
                251: 264.0,
                261: 144.0,
                271: 24.0,
                281: 264.0,
                291: 144.0,
                301: 24.0,
                311: 264.0,
                321: 144.0,
                331: 24.0,
                341: 264.0,
                351: 144.0,
                361: 24.0,
                371: 264.0,
                381: 144.0,
                391: 24.0,
                401: 264.0,
                411: 144.0,
                421: 24.0,
                431: 264.0,
                441: 144.0,
                451: 24.0,
                461: 264.0,
                471: 144.0,
                481: 24.0,
                491: 264.0,
                501: 144.0,
                511: 24.0,
                521: 264.0,
                531: 144.0,
                541: 24.0,
                551: 264.0,
                561: 144.0,
                571: 24.0,
                581: 264.0,
                591: 144.0,
                601: 24.0,
                611: 264.0,
                621: 144.0,
                631: 24.0,
                641: 264.0,
                651: 144.0,
                661: 24.0,
                671: 264.0,
                681: 144.0,
                691: 24.0,
                701: 264.0,
                711: 144.0,
                721: 24.0,
                731: 264.0,
                741: 144.0,
                751: 24.0,
                761: 264.0,
                771: 144.0,
                781: 24.0,
                791: 264.0,
                801: 144.0,
                811: 24.0,
                821: 264.0,
                831: 144.0,
                841: 24.0,
                851: 264.0,
                861: 144.0,
                871: 24.0,
                881: 264.0,
                891: 144.0,
            }
        }

        def Mesh "Arm_04"
        {
            float3[] extent = [(-290.0, -20.0, -20.0), (290.0, 20.0, 20.0)]
            int[] faceVertexCounts = [4, 4, 4, 4, 4, 4]
            int[] faceVertexIndices = [0,1,2,3, 4,5,6,7, 0,4,5,1, 1,5,6,2, 2,6,7,3, 3,7,4,0]
            point3f[] points = [(-290.0,-20.0,-20.0),(290.0,-20.0,-20.0),(290.0,20.0,-20.0),(-290.0,20.0,-20.0),(-290.0,-20.0,20.0),(290.0,-20.0,20.0),(290.0,20.0,20.0),(-290.0,20.0,20.0)]
            double3 xformOp:rotateXYZ = (0, 0, 240.00)
            matrix4d xformOp:transform = ( (1,0,0,0), (0,1,0,0), (0,0,1,0), (-145.00,-251.15,0.00,1) )
            token[] xformOpOrder = ["xformOp:transform", "xformOp:rotateXYZ"]
            rel material:binding = </AquilaSovereign/Materials/DroneBody_Mat>
        }
        def Mesh "Motor_04"
        {
            float3[] extent = [(-30, -30, -30.0), (30, 30, 30.0)]
            int[] faceVertexCounts = [4, 4, 4, 4, 4, 4, 4, 4, 8, 8]
            int[] faceVertexIndices = [0, 2, 3, 1, 2, 4, 5, 3, 4, 6, 7, 5, 6, 8, 9, 7, 8, 10, 11, 9, 10, 12, 13, 11, 12, 14, 15, 13, 14, 0, 1, 15, 0, 2, 4, 6, 8, 10, 12, 14, 1, 3, 5, 7, 9, 11, 13, 15]
            point3f[] points = [(30.0,0.0,-30.0), (30.0,0.0,30.0), (21.2,21.2,-30.0), (21.2,21.2,30.0), (0.0,30.0,-30.0), (0.0,30.0,30.0), (-21.2,21.2,-30.0), (-21.2,21.2,30.0), (-30.0,0.0,-30.0), (-30.0,0.0,30.0), (-21.2,-21.2,-30.0), (-21.2,-21.2,30.0), (-0.0,-30.0,-30.0), (-0.0,-30.0,30.0), (21.2,-21.2,-30.0), (21.2,-21.2,30.0)]
            matrix4d xformOp:transform = ( (1,0,0,0), (0,1,0,0), (0,0,1,0), (-290.00,-502.29,160.00,1) )
            token[] xformOpOrder = ["xformOp:transform"]
            rel material:binding = </AquilaSovereign/Materials/Motor_Mat>
        }
        def Mesh "Propeller_04"
        {
            float3[] extent = [(-400.0, -400.0, -1.5), (400.0, 400.0, 1.5)]
            int[] faceVertexCounts = [4, 4, 4, 4, 4, 4, 4, 4, 8, 8]
            int[] faceVertexIndices = [0, 2, 3, 1, 2, 4, 5, 3, 4, 6, 7, 5, 6, 8, 9, 7, 8, 10, 11, 9, 10, 12, 13, 11, 12, 14, 15, 13, 14, 0, 1, 15, 0, 2, 4, 6, 8, 10, 12, 14, 1, 3, 5, 7, 9, 11, 13, 15]
            point3f[] points = [(400.0,0.0,-1.5), (400.0,0.0,1.5), (282.8,282.8,-1.5), (282.8,282.8,1.5), (0.0,400.0,-1.5), (0.0,400.0,1.5), (-282.8,282.8,-1.5), (-282.8,282.8,1.5), (-400.0,0.0,-1.5), (-400.0,0.0,1.5), (-282.8,-282.8,-1.5), (-282.8,-282.8,1.5), (-0.0,-400.0,-1.5), (-0.0,-400.0,1.5), (282.8,-282.8,-1.5), (282.8,-282.8,1.5)]
            matrix4d xformOp:transform = ( (1,0,0,0), (0,1,0,0), (0,0,1,0), (-290.00,-502.29,195.00,1) )
            token[] xformOpOrder = ["xformOp:transform"]
            rel material:binding = </AquilaSovereign/Materials/Prop_Mat>
            float xformOp:rotateZ = 0
            token[] xformOpOrder = ["xformOp:transform", "xformOp:rotateZ"]
            float xformOp:rotateZ.timeSamples = {
                1: 24.0,
                11: 264.0,
                21: 144.0,
                31: 24.0,
                41: 264.0,
                51: 144.0,
                61: 24.0,
                71: 264.0,
                81: 144.0,
                91: 24.0,
                101: 264.0,
                111: 144.0,
                121: 24.0,
                131: 264.0,
                141: 144.0,
                151: 24.0,
                161: 264.0,
                171: 144.0,
                181: 24.0,
                191: 264.0,
                201: 144.0,
                211: 24.0,
                221: 264.0,
                231: 144.0,
                241: 24.0,
                251: 264.0,
                261: 144.0,
                271: 24.0,
                281: 264.0,
                291: 144.0,
                301: 24.0,
                311: 264.0,
                321: 144.0,
                331: 24.0,
                341: 264.0,
                351: 144.0,
                361: 24.0,
                371: 264.0,
                381: 144.0,
                391: 24.0,
                401: 264.0,
                411: 144.0,
                421: 24.0,
                431: 264.0,
                441: 144.0,
                451: 24.0,
                461: 264.0,
                471: 144.0,
                481: 24.0,
                491: 264.0,
                501: 144.0,
                511: 24.0,
                521: 264.0,
                531: 144.0,
                541: 24.0,
                551: 264.0,
                561: 144.0,
                571: 24.0,
                581: 264.0,
                591: 144.0,
                601: 24.0,
                611: 264.0,
                621: 144.0,
                631: 24.0,
                641: 264.0,
                651: 144.0,
                661: 24.0,
                671: 264.0,
                681: 144.0,
                691: 24.0,
                701: 264.0,
                711: 144.0,
                721: 24.0,
                731: 264.0,
                741: 144.0,
                751: 24.0,
                761: 264.0,
                771: 144.0,
                781: 24.0,
                791: 264.0,
                801: 144.0,
                811: 24.0,
                821: 264.0,
                831: 144.0,
                841: 24.0,
                851: 264.0,
                861: 144.0,
                871: 24.0,
                881: 264.0,
                891: 144.0,
            }
        }

        def Mesh "Arm_05"
        {
            float3[] extent = [(-290.0, -20.0, -20.0), (290.0, 20.0, 20.0)]
            int[] faceVertexCounts = [4, 4, 4, 4, 4, 4]
            int[] faceVertexIndices = [0,1,2,3, 4,5,6,7, 0,4,5,1, 1,5,6,2, 2,6,7,3, 3,7,4,0]
            point3f[] points = [(-290.0,-20.0,-20.0),(290.0,-20.0,-20.0),(290.0,20.0,-20.0),(-290.0,20.0,-20.0),(-290.0,-20.0,20.0),(290.0,-20.0,20.0),(290.0,20.0,20.0),(-290.0,20.0,20.0)]
            double3 xformOp:rotateXYZ = (0, 0, 300.00)
            matrix4d xformOp:transform = ( (1,0,0,0), (0,1,0,0), (0,0,1,0), (145.00,-251.15,0.00,1) )
            token[] xformOpOrder = ["xformOp:transform", "xformOp:rotateXYZ"]
            rel material:binding = </AquilaSovereign/Materials/DroneBody_Mat>
        }
        def Mesh "Motor_05"
        {
            float3[] extent = [(-30, -30, -30.0), (30, 30, 30.0)]
            int[] faceVertexCounts = [4, 4, 4, 4, 4, 4, 4, 4, 8, 8]
            int[] faceVertexIndices = [0, 2, 3, 1, 2, 4, 5, 3, 4, 6, 7, 5, 6, 8, 9, 7, 8, 10, 11, 9, 10, 12, 13, 11, 12, 14, 15, 13, 14, 0, 1, 15, 0, 2, 4, 6, 8, 10, 12, 14, 1, 3, 5, 7, 9, 11, 13, 15]
            point3f[] points = [(30.0,0.0,-30.0), (30.0,0.0,30.0), (21.2,21.2,-30.0), (21.2,21.2,30.0), (0.0,30.0,-30.0), (0.0,30.0,30.0), (-21.2,21.2,-30.0), (-21.2,21.2,30.0), (-30.0,0.0,-30.0), (-30.0,0.0,30.0), (-21.2,-21.2,-30.0), (-21.2,-21.2,30.0), (-0.0,-30.0,-30.0), (-0.0,-30.0,30.0), (21.2,-21.2,-30.0), (21.2,-21.2,30.0)]
            matrix4d xformOp:transform = ( (1,0,0,0), (0,1,0,0), (0,0,1,0), (290.00,-502.29,160.00,1) )
            token[] xformOpOrder = ["xformOp:transform"]
            rel material:binding = </AquilaSovereign/Materials/Motor_Mat>
        }
        def Mesh "Propeller_05"
        {
            float3[] extent = [(-400.0, -400.0, -1.5), (400.0, 400.0, 1.5)]
            int[] faceVertexCounts = [4, 4, 4, 4, 4, 4, 4, 4, 8, 8]
            int[] faceVertexIndices = [0, 2, 3, 1, 2, 4, 5, 3, 4, 6, 7, 5, 6, 8, 9, 7, 8, 10, 11, 9, 10, 12, 13, 11, 12, 14, 15, 13, 14, 0, 1, 15, 0, 2, 4, 6, 8, 10, 12, 14, 1, 3, 5, 7, 9, 11, 13, 15]
            point3f[] points = [(400.0,0.0,-1.5), (400.0,0.0,1.5), (282.8,282.8,-1.5), (282.8,282.8,1.5), (0.0,400.0,-1.5), (0.0,400.0,1.5), (-282.8,282.8,-1.5), (-282.8,282.8,1.5), (-400.0,0.0,-1.5), (-400.0,0.0,1.5), (-282.8,-282.8,-1.5), (-282.8,-282.8,1.5), (-0.0,-400.0,-1.5), (-0.0,-400.0,1.5), (282.8,-282.8,-1.5), (282.8,-282.8,1.5)]
            matrix4d xformOp:transform = ( (1,0,0,0), (0,1,0,0), (0,0,1,0), (290.00,-502.29,195.00,1) )
            token[] xformOpOrder = ["xformOp:transform"]
            rel material:binding = </AquilaSovereign/Materials/Prop_Mat>
            float xformOp:rotateZ = 0
            token[] xformOpOrder = ["xformOp:transform", "xformOp:rotateZ"]
            float xformOp:rotateZ.timeSamples = {
                1: 24.0,
                11: 264.0,
                21: 144.0,
                31: 24.0,
                41: 264.0,
                51: 144.0,
                61: 24.0,
                71: 264.0,
                81: 144.0,
                91: 24.0,
                101: 264.0,
                111: 144.0,
                121: 24.0,
                131: 264.0,
                141: 144.0,
                151: 24.0,
                161: 264.0,
                171: 144.0,
                181: 24.0,
                191: 264.0,
                201: 144.0,
                211: 24.0,
                221: 264.0,
                231: 144.0,
                241: 24.0,
                251: 264.0,
                261: 144.0,
                271: 24.0,
                281: 264.0,
                291: 144.0,
                301: 24.0,
                311: 264.0,
                321: 144.0,
                331: 24.0,
                341: 264.0,
                351: 144.0,
                361: 24.0,
                371: 264.0,
                381: 144.0,
                391: 24.0,
                401: 264.0,
                411: 144.0,
                421: 24.0,
                431: 264.0,
                441: 144.0,
                451: 24.0,
                461: 264.0,
                471: 144.0,
                481: 24.0,
                491: 264.0,
                501: 144.0,
                511: 24.0,
                521: 264.0,
                531: 144.0,
                541: 24.0,
                551: 264.0,
                561: 144.0,
                571: 24.0,
                581: 264.0,
                591: 144.0,
                601: 24.0,
                611: 264.0,
                621: 144.0,
                631: 24.0,
                641: 264.0,
                651: 144.0,
                661: 24.0,
                671: 264.0,
                681: 144.0,
                691: 24.0,
                701: 264.0,
                711: 144.0,
                721: 24.0,
                731: 264.0,
                741: 144.0,
                751: 24.0,
                761: 264.0,
                771: 144.0,
                781: 24.0,
                791: 264.0,
                801: 144.0,
                811: 24.0,
                821: 264.0,
                831: 144.0,
                841: 24.0,
                851: 264.0,
                861: 144.0,
                871: 24.0,
                881: 264.0,
                891: 144.0,
            }
        }

        def Mesh "LandingGear_00"
        {
            float3[] extent = [(-10, -10, -40.0), (10, 10, 40.0)]
            int[] faceVertexCounts = [4, 4, 4, 4, 4, 4, 6, 6]
            int[] faceVertexIndices = [0, 2, 3, 1, 2, 4, 5, 3, 4, 6, 7, 5, 6, 8, 9, 7, 8, 10, 11, 9, 10, 0, 1, 11, 0, 2, 4, 6, 8, 10, 1, 3, 5, 7, 9, 11]
            point3f[] points = [(10.0,0.0,-40.0), (10.0,0.0,40.0), (5.0,8.7,-40.0), (5.0,8.7,40.0), (-5.0,8.7,-40.0), (-5.0,8.7,40.0), (-10.0,0.0,-40.0), (-10.0,0.0,40.0), (-5.0,-8.7,-40.0), (-5.0,-8.7,40.0), (5.0,-8.7,-40.0), (5.0,-8.7,40.0)]
            matrix4d xformOp:transform = ( (1,0,0,0), (0,1,0,0), (0,0,1,0), (56.57,56.57,-170.00,1) )
            token[] xformOpOrder = ["xformOp:transform"]
            rel material:binding = </AquilaSovereign/Materials/DroneBody_Mat>
        }
        def Mesh "LandingGear_01"
        {
            float3[] extent = [(-10, -10, -40.0), (10, 10, 40.0)]
            int[] faceVertexCounts = [4, 4, 4, 4, 4, 4, 6, 6]
            int[] faceVertexIndices = [0, 2, 3, 1, 2, 4, 5, 3, 4, 6, 7, 5, 6, 8, 9, 7, 8, 10, 11, 9, 10, 0, 1, 11, 0, 2, 4, 6, 8, 10, 1, 3, 5, 7, 9, 11]
            point3f[] points = [(10.0,0.0,-40.0), (10.0,0.0,40.0), (5.0,8.7,-40.0), (5.0,8.7,40.0), (-5.0,8.7,-40.0), (-5.0,8.7,40.0), (-10.0,0.0,-40.0), (-10.0,0.0,40.0), (-5.0,-8.7,-40.0), (-5.0,-8.7,40.0), (5.0,-8.7,-40.0), (5.0,-8.7,40.0)]
            matrix4d xformOp:transform = ( (1,0,0,0), (0,1,0,0), (0,0,1,0), (-56.57,56.57,-170.00,1) )
            token[] xformOpOrder = ["xformOp:transform"]
            rel material:binding = </AquilaSovereign/Materials/DroneBody_Mat>
        }
        def Mesh "LandingGear_02"
        {
            float3[] extent = [(-10, -10, -40.0), (10, 10, 40.0)]
            int[] faceVertexCounts = [4, 4, 4, 4, 4, 4, 6, 6]
            int[] faceVertexIndices = [0, 2, 3, 1, 2, 4, 5, 3, 4, 6, 7, 5, 6, 8, 9, 7, 8, 10, 11, 9, 10, 0, 1, 11, 0, 2, 4, 6, 8, 10, 1, 3, 5, 7, 9, 11]
            point3f[] points = [(10.0,0.0,-40.0), (10.0,0.0,40.0), (5.0,8.7,-40.0), (5.0,8.7,40.0), (-5.0,8.7,-40.0), (-5.0,8.7,40.0), (-10.0,0.0,-40.0), (-10.0,0.0,40.0), (-5.0,-8.7,-40.0), (-5.0,-8.7,40.0), (5.0,-8.7,-40.0), (5.0,-8.7,40.0)]
            matrix4d xformOp:transform = ( (1,0,0,0), (0,1,0,0), (0,0,1,0), (-56.57,-56.57,-170.00,1) )
            token[] xformOpOrder = ["xformOp:transform"]
            rel material:binding = </AquilaSovereign/Materials/DroneBody_Mat>
        }
        def Mesh "LandingGear_03"
        {
            float3[] extent = [(-10, -10, -40.0), (10, 10, 40.0)]
            int[] faceVertexCounts = [4, 4, 4, 4, 4, 4, 6, 6]
            int[] faceVertexIndices = [0, 2, 3, 1, 2, 4, 5, 3, 4, 6, 7, 5, 6, 8, 9, 7, 8, 10, 11, 9, 10, 0, 1, 11, 0, 2, 4, 6, 8, 10, 1, 3, 5, 7, 9, 11]
            point3f[] points = [(10.0,0.0,-40.0), (10.0,0.0,40.0), (5.0,8.7,-40.0), (5.0,8.7,40.0), (-5.0,8.7,-40.0), (-5.0,8.7,40.0), (-10.0,0.0,-40.0), (-10.0,0.0,40.0), (-5.0,-8.7,-40.0), (-5.0,-8.7,40.0), (5.0,-8.7,-40.0), (5.0,-8.7,40.0)]
            matrix4d xformOp:transform = ( (1,0,0,0), (0,1,0,0), (0,0,1,0), (56.57,-56.57,-170.00,1) )
            token[] xformOpOrder = ["xformOp:transform"]
            rel material:binding = </AquilaSovereign/Materials/DroneBody_Mat>
        }
    }

    def Scope "Phase1_Operational"
    {
    # Phase 1 — Operational leak-detection stack (fly now)
        def Mesh "PWR_001"
        {
            float3[] extent = [(-107.5, -45.0, -37.5), (107.5, 45.0, 37.5)]
            int[] faceVertexCounts = [4, 4, 4, 4, 4, 4]
            int[] faceVertexIndices = [0,1,2,3, 4,5,6,7, 0,4,5,1, 1,5,6,2, 2,6,7,3, 3,7,4,0]
            point3f[] points = [(-107.5,-45.0,-37.5), (107.5,-45.0,-37.5), (107.5,45.0,-37.5), (-107.5,45.0,-37.5), (-107.5,-45.0,37.5), (107.5,-45.0,37.5), (107.5,45.0,37.5), (-107.5,45.0,37.5)]
            matrix4d xformOp:transform = ( (1,0,0,0), (0,1,0,0), (0,0,1,0), (-150.00,0.00,-80.00,1) )
            token[] xformOpOrder = ["xformOp:transform"]
            string bomId = "PWR-001"
            string subsystem = "Power"
            double weightGrams = 2300
            rel material:binding = </AquilaSovereign/Materials/PWR_001_Mat>
        }
        def Material "PWR_001_Mat"
        {
            token outputs:surface.connect = </AquilaSovereign/Materials/PWR_001_Mat/Shader.outputs:surface>
            def Shader "Shader"
            {
                uniform token info:id = "UsdPreviewSurface"
                color3f inputs:diffuseColor = (0.100, 0.600, 0.100)
                float inputs:roughness = 0.5
                float inputs:metallic = 0.3
                token outputs:surface
            }
        }
        def Mesh "PWR_002"
        {
            float3[] extent = [(-90.0, -37.5, -80.0), (90.0, 37.5, 80.0)]
            int[] faceVertexCounts = [4, 4, 4, 4, 4, 4]
            int[] faceVertexIndices = [0,1,2,3, 4,5,6,7, 0,4,5,1, 1,5,6,2, 2,6,7,3, 3,7,4,0]
            point3f[] points = [(-90.0,-37.5,-80.0), (90.0,-37.5,-80.0), (90.0,37.5,-80.0), (-90.0,37.5,-80.0), (-90.0,-37.5,80.0), (90.0,-37.5,80.0), (90.0,37.5,80.0), (-90.0,37.5,80.0)]
            matrix4d xformOp:transform = ( (1,0,0,0), (0,1,0,0), (0,0,1,0), (150.00,0.00,-80.00,1) )
            token[] xformOpOrder = ["xformOp:transform"]
            string bomId = "PWR-002"
            string subsystem = "Power"
            double weightGrams = 2600
            rel material:binding = </AquilaSovereign/Materials/PWR_002_Mat>
        }
        def Material "PWR_002_Mat"
        {
            token outputs:surface.connect = </AquilaSovereign/Materials/PWR_002_Mat/Shader.outputs:surface>
            def Shader "Shader"
            {
                uniform token info:id = "UsdPreviewSurface"
                color3f inputs:diffuseColor = (0.100, 0.500, 0.200)
                float inputs:roughness = 0.5
                float inputs:metallic = 0.3
                token outputs:surface
            }
        }
        def Mesh "CMP_001"
        {
            float3[] extent = [(-55.0, -55.0, -36.0), (55.0, 55.0, 36.0)]
            int[] faceVertexCounts = [4, 4, 4, 4, 4, 4]
            int[] faceVertexIndices = [0,1,2,3, 4,5,6,7, 0,4,5,1, 1,5,6,2, 2,6,7,3, 3,7,4,0]
            point3f[] points = [(-55.0,-55.0,-36.0), (55.0,-55.0,-36.0), (55.0,55.0,-36.0), (-55.0,55.0,-36.0), (-55.0,-55.0,36.0), (55.0,-55.0,36.0), (55.0,55.0,36.0), (-55.0,55.0,36.0)]
            matrix4d xformOp:transform = ( (1,0,0,0), (0,1,0,0), (0,0,1,0), (0.00,60.00,60.00,1) )
            token[] xformOpOrder = ["xformOp:transform"]
            string bomId = "CMP-001"
            string subsystem = "Compute"
            double weightGrams = 1350
            rel material:binding = </AquilaSovereign/Materials/CMP_001_Mat>
        }
        def Material "CMP_001_Mat"
        {
            token outputs:surface.connect = </AquilaSovereign/Materials/CMP_001_Mat/Shader.outputs:surface>
            def Shader "Shader"
            {
                uniform token info:id = "UsdPreviewSurface"
                color3f inputs:diffuseColor = (0.200, 0.200, 0.800)
                float inputs:roughness = 0.5
                float inputs:metallic = 0.3
                token outputs:surface
            }
        }
        def Mesh "CMP_002"
        {
            float3[] extent = [(-77.5, -63.0, -2.5), (77.5, 63.0, 2.5)]
            int[] faceVertexCounts = [4, 4, 4, 4, 4, 4]
            int[] faceVertexIndices = [0,1,2,3, 4,5,6,7, 0,4,5,1, 1,5,6,2, 2,6,7,3, 3,7,4,0]
            point3f[] points = [(-77.5,-63.0,-2.5), (77.5,-63.0,-2.5), (77.5,63.0,-2.5), (-77.5,63.0,-2.5), (-77.5,-63.0,2.5), (77.5,-63.0,2.5), (77.5,63.0,2.5), (-77.5,63.0,2.5)]
            matrix4d xformOp:transform = ( (1,0,0,0), (0,1,0,0), (0,0,1,0), (0.00,60.00,95.00,1) )
            token[] xformOpOrder = ["xformOp:transform"]
            string bomId = "CMP-002"
            string subsystem = "Compute"
            double weightGrams = 300
            rel material:binding = </AquilaSovereign/Materials/CMP_002_Mat>
        }
        def Material "CMP_002_Mat"
        {
            token outputs:surface.connect = </AquilaSovereign/Materials/CMP_002_Mat/Shader.outputs:surface>
            def Shader "Shader"
            {
                uniform token info:id = "UsdPreviewSurface"
                color3f inputs:diffuseColor = (0.150, 0.150, 0.600)
                float inputs:roughness = 0.5
                float inputs:metallic = 0.3
                token outputs:surface
            }
        }
        def Mesh "GPR_001"
        {
            float3[] extent = [(-130.0, -80.0, -20.0), (130.0, 80.0, 20.0)]
            int[] faceVertexCounts = [4, 4, 4, 4, 4, 4]
            int[] faceVertexIndices = [0,1,2,3, 4,5,6,7, 0,4,5,1, 1,5,6,2, 2,6,7,3, 3,7,4,0]
            point3f[] points = [(-130.0,-80.0,-20.0), (130.0,-80.0,-20.0), (130.0,80.0,-20.0), (-130.0,80.0,-20.0), (-130.0,-80.0,20.0), (130.0,-80.0,20.0), (130.0,80.0,20.0), (-130.0,80.0,20.0)]
            matrix4d xformOp:transform = ( (1,0,0,0), (0,1,0,0), (0,0,1,0), (0.00,-120.00,-40.00,1) )
            token[] xformOpOrder = ["xformOp:transform"]
            string bomId = "GPR-001"
            string subsystem = "Subsurface"
            double weightGrams = 1200
            rel material:binding = </AquilaSovereign/Materials/GPR_001_Mat>
        }
        def Material "GPR_001_Mat"
        {
            token outputs:surface.connect = </AquilaSovereign/Materials/GPR_001_Mat/Shader.outputs:surface>
            def Shader "Shader"
            {
                uniform token info:id = "UsdPreviewSurface"
                color3f inputs:diffuseColor = (0.300, 0.800, 0.300)
                float inputs:roughness = 0.5
                float inputs:metallic = 0.3
                token outputs:surface
            }
        }
        def Xform "STB_001"
        {
            matrix4d xformOp:transform = ( (1,0,0,0), (0,1,0,0), (0,0,1,0), (0.00,-80.00,-180.00,1) )
            token[] xformOpOrder = ["xformOp:transform"]
            string bomId = "STB-001"
            string subsystem = "Structure"
            double weightGrams = 1950
            def Mesh "YawRing"
            {
                float3[] extent = [(-120.0, -120.0, -45.0), (120.0, 120.0, 45.0)]
                int[] faceVertexCounts = [4, 4, 4, 4, 4, 4, 4, 4, 4, 4, 4, 4, 4, 4, 4, 4]
                int[] faceVertexIndices = [0, 2, 3, 1, 2, 4, 5, 3, 4, 6, 7, 5, 6, 8, 9, 7, 8, 10, 11, 9, 10, 12, 13, 11, 12, 14, 15, 13, 14, 16, 17, 15, 16, 18, 19, 17, 18, 20, 21, 19, 20, 22, 23, 21, 22, 24, 25, 23, 24, 26, 27, 25, 26, 28, 29, 27, 28, 30, 31, 29, 30, 0, 1, 31]
                point3f[] points = [(120.00,0.00,0), (108.00,0.00,0), (110.87,45.92,0), (99.78,41.33,0), (84.85,84.85,0), (76.37,76.37,0), (45.92,110.87,0), (41.33,99.78,0), (0.00,120.00,0), (0.00,108.00,0), (-45.92,110.87,0), (-41.33,99.78,0), (-84.85,84.85,0), (-76.37,76.37,0), (-110.87,45.92,0), (-99.78,41.33,0), (-120.00,0.00,0), (-108.00,0.00,0), (-110.87,-45.92,0), (-99.78,-41.33,0), (-84.85,-84.85,0), (-76.37,-76.37,0), (-45.92,-110.87,0), (-41.33,-99.78,0), (-0.00,-120.00,0), (-0.00,-108.00,0), (45.92,-110.87,0), (41.33,-99.78,0), (84.85,-84.85,0), (76.37,-76.37,0), (110.87,-45.92,0), (99.78,-41.33,0)]
                double3 xformOp:rotateXYZ = (0, 0, 0)
                token[] xformOpOrder = ["xformOp:rotateXYZ"]
                rel material:binding = </AquilaSovereign/Materials/STB_001_Mat>
            }
            def Mesh "PitchRing"
            {
                float3[] extent = [(-102.0, -102.0, -36.0), (102.0, 102.0, 36.0)]
                int[] faceVertexCounts = [4, 4, 4, 4, 4, 4, 4, 4, 4, 4, 4, 4, 4, 4, 4, 4]
                int[] faceVertexIndices = [0, 2, 3, 1, 2, 4, 5, 3, 4, 6, 7, 5, 6, 8, 9, 7, 8, 10, 11, 9, 10, 12, 13, 11, 12, 14, 15, 13, 14, 16, 17, 15, 16, 18, 19, 17, 18, 20, 21, 19, 20, 22, 23, 21, 22, 24, 25, 23, 24, 26, 27, 25, 26, 28, 29, 27, 28, 30, 31, 29, 30, 0, 1, 31]
                point3f[] points = [(102.00,0.00,0), (91.80,0.00,0), (94.24,39.03,0), (84.81,35.13,0), (72.12,72.12,0), (64.91,64.91,0), (39.03,94.24,0), (35.13,84.81,0), (0.00,102.00,0), (0.00,91.80,0), (-39.03,94.24,0), (-35.13,84.81,0), (-72.12,72.12,0), (-64.91,64.91,0), (-94.24,39.03,0), (-84.81,35.13,0), (-102.00,0.00,0), (-91.80,0.00,0), (-94.24,-39.03,0), (-84.81,-35.13,0), (-72.12,-72.12,0), (-64.91,-64.91,0), (-39.03,-94.24,0), (-35.13,-84.81,0), (-0.00,-102.00,0), (-0.00,-91.80,0), (39.03,-94.24,0), (35.13,-84.81,0), (72.12,-72.12,0), (64.91,-64.91,0), (94.24,-39.03,0), (84.81,-35.13,0)]
                double3 xformOp:rotateXYZ = (0, 90, 0)
                token[] xformOpOrder = ["xformOp:rotateXYZ"]
                rel material:binding = </AquilaSovereign/Materials/STB_001_Mat>
            }
            def Mesh "RollRing"
            {
                float3[] extent = [(-71.4, -71.4, -27.0), (71.4, 71.4, 27.0)]
                int[] faceVertexCounts = [4, 4, 4, 4, 4, 4, 4, 4, 4, 4, 4, 4, 4, 4, 4, 4]
                int[] faceVertexIndices = [0, 2, 3, 1, 2, 4, 5, 3, 4, 6, 7, 5, 6, 8, 9, 7, 8, 10, 11, 9, 10, 12, 13, 11, 12, 14, 15, 13, 14, 16, 17, 15, 16, 18, 19, 17, 18, 20, 21, 19, 20, 22, 23, 21, 22, 24, 25, 23, 24, 26, 27, 25, 26, 28, 29, 27, 28, 30, 31, 29, 30, 0, 1, 31]
                point3f[] points = [(71.40,0.00,0), (64.26,0.00,0), (65.96,27.32,0), (59.37,24.59,0), (50.49,50.49,0), (45.44,45.44,0), (27.32,65.96,0), (24.59,59.37,0), (0.00,71.40,0), (0.00,64.26,0), (-27.32,65.96,0), (-24.59,59.37,0), (-50.49,50.49,0), (-45.44,45.44,0), (-65.96,27.32,0), (-59.37,24.59,0), (-71.40,0.00,0), (-64.26,0.00,0), (-65.96,-27.32,0), (-59.37,-24.59,0), (-50.49,-50.49,0), (-45.44,-45.44,0), (-27.32,-65.96,0), (-24.59,-59.37,0), (-0.00,-71.40,0), (-0.00,-64.26,0), (27.32,-65.96,0), (24.59,-59.37,0), (50.49,-50.49,0), (45.44,-45.44,0), (65.96,-27.32,0), (59.37,-24.59,0)]
                double3 xformOp:rotateXYZ = (90, 0, 0)
                token[] xformOpOrder = ["xformOp:rotateXYZ"]
                rel material:binding = </AquilaSovereign/Materials/STB_001_Mat>
            }
        }
        def Material "STB_001_Mat"
        {
            token outputs:surface.connect = </AquilaSovereign/Materials/STB_001_Mat/Shader.outputs:surface>
            def Shader "Shader"
            {
                uniform token info:id = "UsdPreviewSurface"
                color3f inputs:diffuseColor = (0.500, 0.500, 0.500)
                float inputs:metallic = 0.7
                float inputs:roughness = 0.3
                token outputs:surface
            }
        }
        def Mesh "STR_001"
        {
            float3[] extent = [(-150.0, -150.0, -135.0), (150.0, 150.0, 135.0)]
            int[] faceVertexCounts = [4, 4, 4, 4, 4, 4, 4, 4, 4, 4, 4, 4, 12, 12]
            int[] faceVertexIndices = [0, 1, 13, 12, 1, 2, 14, 13, 2, 3, 15, 14, 3, 4, 16, 15, 4, 5, 17, 16, 5, 6, 18, 17, 6, 7, 19, 18, 7, 8, 20, 19, 8, 9, 21, 20, 9, 10, 22, 21, 10, 11, 23, 22, 11, 0, 12, 23, 0, 1, 2, 3, 4, 5, 6, 7, 8, 9, 10, 11, 12, 13, 14, 15, 16, 17, 18, 19, 20, 21, 22, 23]
            point3f[] points = [(150.00,0.00,-135.00), (129.90,75.00,-135.00), (75.00,129.90,-135.00), (0.00,150.00,-135.00), (-75.00,129.90,-135.00), (-129.90,75.00,-135.00), (-150.00,0.00,-135.00), (-129.90,-75.00,-135.00), (-75.00,-129.90,-135.00), (-0.00,-150.00,-135.00), (75.00,-129.90,-135.00), (129.90,-75.00,-135.00), (150.00,0.00,135.00), (129.90,75.00,135.00), (75.00,129.90,135.00), (0.00,150.00,135.00), (-75.00,129.90,135.00), (-129.90,75.00,135.00), (-150.00,0.00,135.00), (-129.90,-75.00,135.00), (-75.00,-129.90,135.00), (-0.00,-150.00,135.00), (75.00,-129.90,135.00), (129.90,-75.00,135.00)]
            matrix4d xformOp:transform = ( (1,0,0,0), (0,1,0,0), (0,0,1,0), (0.00,0.00,0.00,1) )
            token[] xformOpOrder = ["xformOp:transform"]
            string bomId = "STR-001"
            string subsystem = "Structure"
            double weightGrams = 1800
            rel material:binding = </AquilaSovereign/Materials/STR_001_Mat>
        }
        def Material "STR_001_Mat"
        {
            token outputs:surface.connect = </AquilaSovereign/Materials/STR_001_Mat/Shader.outputs:surface>
            def Shader "Shader"
            {
                uniform token info:id = "UsdPreviewSurface"
                color3f inputs:diffuseColor = (0.120, 0.120, 0.150)
                float inputs:roughness = 0.6
                token outputs:surface
            }
        }
        def Mesh "OPT_001"
        {
            float3[] extent = [(-22.0, -22.0, -16.0), (22.0, 22.0, 16.0)]
            int[] faceVertexCounts = [4, 4, 4, 4, 4, 4]
            int[] faceVertexIndices = [0,1,2,3, 4,5,6,7, 0,4,5,1, 1,5,6,2, 2,6,7,3, 3,7,4,0]
            point3f[] points = [(-22.0,-22.0,-16.0), (22.0,-22.0,-16.0), (22.0,22.0,-16.0), (-22.0,22.0,-16.0), (-22.0,-22.0,16.0), (22.0,-22.0,16.0), (22.0,22.0,16.0), (-22.0,22.0,16.0)]
            matrix4d xformOp:transform = ( (1,0,0,0), (0,1,0,0), (0,0,1,0), (0.00,-100.00,-220.00,1) )
            token[] xformOpOrder = ["xformOp:transform"]
            string bomId = "OPT-001"
            string subsystem = "EO/IR"
            double weightGrams = 45
            rel material:binding = </AquilaSovereign/Materials/OPT_001_Mat>
        }
        def Material "OPT_001_Mat"
        {
            token outputs:surface.connect = </AquilaSovereign/Materials/OPT_001_Mat/Shader.outputs:surface>
            def Shader "Shader"
            {
                uniform token info:id = "UsdPreviewSurface"
                color3f inputs:diffuseColor = (0.200, 0.200, 0.300)
                float inputs:roughness = 0.5
                float inputs:metallic = 0.3
                token outputs:surface
            }
        }
        def Mesh "OPT_002"
        {
            float3[] extent = [(-50.0, -37.5, -32.5), (50.0, 37.5, 32.5)]
            int[] faceVertexCounts = [4, 4, 4, 4, 4, 4]
            int[] faceVertexIndices = [0,1,2,3, 4,5,6,7, 0,4,5,1, 1,5,6,2, 2,6,7,3, 3,7,4,0]
            point3f[] points = [(-50.0,-37.5,-32.5), (50.0,-37.5,-32.5), (50.0,37.5,-32.5), (-50.0,37.5,-32.5), (-50.0,-37.5,32.5), (50.0,-37.5,32.5), (50.0,37.5,32.5), (-50.0,37.5,32.5)]
            matrix4d xformOp:transform = ( (1,0,0,0), (0,1,0,0), (0,0,1,0), (60.00,-100.00,-220.00,1) )
            token[] xformOpOrder = ["xformOp:transform"]
            string bomId = "OPT-002"
            string subsystem = "Photogrammetry"
            double weightGrams = 3
            rel material:binding = </AquilaSovereign/Materials/OPT_002_Mat>
        }
        def Material "OPT_002_Mat"
        {
            token outputs:surface.connect = </AquilaSovereign/Materials/OPT_002_Mat/Shader.outputs:surface>
            def Shader "Shader"
            {
                uniform token info:id = "UsdPreviewSurface"
                color3f inputs:diffuseColor = (0.100, 0.100, 0.100)
                float inputs:roughness = 0.5
                float inputs:metallic = 0.3
                token outputs:surface
            }
        }
        def Mesh "OPT_003"
        {
            float3[] extent = [(-87.5, -15.0, -16.5), (87.5, 15.0, 16.5)]
            int[] faceVertexCounts = [4, 4, 4, 4, 4, 4]
            int[] faceVertexIndices = [0,1,2,3, 4,5,6,7, 0,4,5,1, 1,5,6,2, 2,6,7,3, 3,7,4,0]
            point3f[] points = [(-87.5,-15.0,-16.5), (87.5,-15.0,-16.5), (87.5,15.0,-16.5), (-87.5,15.0,-16.5), (-87.5,-15.0,16.5), (87.5,-15.0,16.5), (87.5,15.0,16.5), (-87.5,15.0,16.5)]
            matrix4d xformOp:transform = ( (1,0,0,0), (0,1,0,0), (0,0,1,0), (-60.00,-100.00,-220.00,1) )
            token[] xformOpOrder = ["xformOp:transform"]
            string bomId = "OPT-003"
            string subsystem = "Stereo Vision"
            double weightGrams = 166
            rel material:binding = </AquilaSovereign/Materials/OPT_003_Mat>
        }
        def Material "OPT_003_Mat"
        {
            token outputs:surface.connect = </AquilaSovereign/Materials/OPT_003_Mat/Shader.outputs:surface>
            def Shader "Shader"
            {
                uniform token info:id = "UsdPreviewSurface"
                color3f inputs:diffuseColor = (0.000, 0.600, 0.900)
                float inputs:roughness = 0.5
                float inputs:metallic = 0.3
                token outputs:surface
            }
        }
        def Mesh "NAV_001"
        {
            float3[] extent = [(-10.0, -24.0, -20.0), (10.0, 24.0, 20.0)]
            int[] faceVertexCounts = [4, 4, 4, 4, 4, 4]
            int[] faceVertexIndices = [0,1,2,3, 4,5,6,7, 0,4,5,1, 1,5,6,2, 2,6,7,3, 3,7,4,0]
            point3f[] points = [(-10.0,-24.0,-20.0), (10.0,-24.0,-20.0), (10.0,24.0,-20.0), (-10.0,24.0,-20.0), (-10.0,-24.0,20.0), (10.0,-24.0,20.0), (10.0,24.0,20.0), (-10.0,24.0,20.0)]
            matrix4d xformOp:transform = ( (1,0,0,0), (0,1,0,0), (0,0,1,0), (120.00,100.00,80.00,1) )
            token[] xformOpOrder = ["xformOp:transform"]
            string bomId = "NAV-001"
            string subsystem = "NAV"
            double weightGrams = 80
            rel material:binding = </AquilaSovereign/Materials/NAV_001_Mat>
        }
        def Material "NAV_001_Mat"
        {
            token outputs:surface.connect = </AquilaSovereign/Materials/NAV_001_Mat/Shader.outputs:surface>
            def Shader "Shader"
            {
                uniform token info:id = "UsdPreviewSurface"
                color3f inputs:diffuseColor = (0.000, 0.800, 0.300)
                float inputs:roughness = 0.5
                float inputs:metallic = 0.3
                token outputs:surface
            }
        }
        def Mesh "CHE_001"
        {
            float3[] extent = [(-60.0, -30.0, -20.0), (60.0, 30.0, 20.0)]
            int[] faceVertexCounts = [4, 4, 4, 4, 4, 4]
            int[] faceVertexIndices = [0,1,2,3, 4,5,6,7, 0,4,5,1, 1,5,6,2, 2,6,7,3, 3,7,4,0]
            point3f[] points = [(-60.0,-30.0,-20.0), (60.0,-30.0,-20.0), (60.0,30.0,-20.0), (-60.0,30.0,-20.0), (-60.0,-30.0,20.0), (60.0,-30.0,20.0), (60.0,30.0,20.0), (-60.0,30.0,20.0)]
            matrix4d xformOp:transform = ( (1,0,0,0), (0,1,0,0), (0,0,1,0), (-80.00,-40.00,40.00,1) )
            token[] xformOpOrder = ["xformOp:transform"]
            string bomId = "CHE-001"
            string subsystem = "Chemistry"
            double weightGrams = 450
            rel material:binding = </AquilaSovereign/Materials/CHE_001_Mat>
        }
        def Material "CHE_001_Mat"
        {
            token outputs:surface.connect = </AquilaSovereign/Materials/CHE_001_Mat/Shader.outputs:surface>
            def Shader "Shader"
            {
                uniform token info:id = "UsdPreviewSurface"
                color3f inputs:diffuseColor = (0.800, 0.200, 0.100)
                float inputs:roughness = 0.5
                float inputs:metallic = 0.3
                token outputs:surface
            }
        }
        def Mesh "CHE_002"
        {
            float3[] extent = [(-20.0, -20.0, -15.0), (20.0, 20.0, 15.0)]
            int[] faceVertexCounts = [4, 4, 4, 4, 4, 4]
            int[] faceVertexIndices = [0,1,2,3, 4,5,6,7, 0,4,5,1, 1,5,6,2, 2,6,7,3, 3,7,4,0]
            point3f[] points = [(-20.0,-20.0,-15.0), (20.0,-20.0,-15.0), (20.0,20.0,-15.0), (-20.0,20.0,-15.0), (-20.0,-20.0,15.0), (20.0,-20.0,15.0), (20.0,20.0,15.0), (-20.0,20.0,15.0)]
            matrix4d xformOp:transform = ( (1,0,0,0), (0,1,0,0), (0,0,1,0), (-80.00,-80.00,40.00,1) )
            token[] xformOpOrder = ["xformOp:transform"]
            string bomId = "CHE-002"
            string subsystem = "Chemistry"
            double weightGrams = 250
            rel material:binding = </AquilaSovereign/Materials/CHE_002_Mat>
        }
        def Material "CHE_002_Mat"
        {
            token outputs:surface.connect = </AquilaSovereign/Materials/CHE_002_Mat/Shader.outputs:surface>
            def Shader "Shader"
            {
                uniform token info:id = "UsdPreviewSurface"
                color3f inputs:diffuseColor = (0.700, 0.300, 0.000)
                float inputs:roughness = 0.5
                float inputs:metallic = 0.3
                token outputs:surface
            }
        }
        def Mesh "CHE_003"
        {
            float3[] extent = [(-25.0, -25.0, -35.0), (25.0, 25.0, 35.0)]
            int[] faceVertexCounts = [4, 4, 4, 4, 4, 4]
            int[] faceVertexIndices = [0,1,2,3, 4,5,6,7, 0,4,5,1, 1,5,6,2, 2,6,7,3, 3,7,4,0]
            point3f[] points = [(-25.0,-25.0,-35.0), (25.0,-25.0,-35.0), (25.0,25.0,-35.0), (-25.0,25.0,-35.0), (-25.0,-25.0,35.0), (25.0,-25.0,35.0), (25.0,25.0,35.0), (-25.0,25.0,35.0)]
            matrix4d xformOp:transform = ( (1,0,0,0), (0,1,0,0), (0,0,1,0), (-80.00,20.00,40.00,1) )
            token[] xformOpOrder = ["xformOp:transform"]
            string bomId = "CHE-003"
            string subsystem = "Chemistry"
            double weightGrams = 220
            rel material:binding = </AquilaSovereign/Materials/CHE_003_Mat>
        }
        def Material "CHE_003_Mat"
        {
            token outputs:surface.connect = </AquilaSovereign/Materials/CHE_003_Mat/Shader.outputs:surface>
            def Shader "Shader"
            {
                uniform token info:id = "UsdPreviewSurface"
                color3f inputs:diffuseColor = (0.600, 0.400, 0.000)
                float inputs:roughness = 0.5
                float inputs:metallic = 0.3
                token outputs:surface
            }
        }
        def Mesh "CHE_004"
        {
            float3[] extent = [(-13.5, -6.5, -4.0), (13.5, 6.5, 4.0)]
            int[] faceVertexCounts = [4, 4, 4, 4, 4, 4]
            int[] faceVertexIndices = [0,1,2,3, 4,5,6,7, 0,4,5,1, 1,5,6,2, 2,6,7,3, 3,7,4,0]
            point3f[] points = [(-13.5,-6.5,-4.0), (13.5,-6.5,-4.0), (13.5,6.5,-4.0), (-13.5,6.5,-4.0), (-13.5,-6.5,4.0), (13.5,-6.5,4.0), (13.5,6.5,4.0), (-13.5,6.5,4.0)]
            matrix4d xformOp:transform = ( (1,0,0,0), (0,1,0,0), (0,0,1,0), (-80.00,60.00,40.00,1) )
            token[] xformOpOrder = ["xformOp:transform"]
            string bomId = "CHE-004"
            string subsystem = "Chemistry"
            double weightGrams = 10
            rel material:binding = </AquilaSovereign/Materials/CHE_004_Mat>
        }
        def Material "CHE_004_Mat"
        {
            token outputs:surface.connect = </AquilaSovereign/Materials/CHE_004_Mat/Shader.outputs:surface>
            def Shader "Shader"
            {
                uniform token info:id = "UsdPreviewSurface"
                color3f inputs:diffuseColor = (0.500, 0.500, 0.000)
                float inputs:roughness = 0.5
                float inputs:metallic = 0.3
                token outputs:surface
            }
        }
        def Mesh "CHE_005"
        {
            float3[] extent = [(-12.5, -10.0, -5.0), (12.5, 10.0, 5.0)]
            int[] faceVertexCounts = [4, 4, 4, 4, 4, 4]
            int[] faceVertexIndices = [0,1,2,3, 4,5,6,7, 0,4,5,1, 1,5,6,2, 2,6,7,3, 3,7,4,0]
            point3f[] points = [(-12.5,-10.0,-5.0), (12.5,-10.0,-5.0), (12.5,10.0,-5.0), (-12.5,10.0,-5.0), (-12.5,-10.0,5.0), (12.5,-10.0,5.0), (12.5,10.0,5.0), (-12.5,10.0,5.0)]
            matrix4d xformOp:transform = ( (1,0,0,0), (0,1,0,0), (0,0,1,0), (80.00,40.00,40.00,1) )
            token[] xformOpOrder = ["xformOp:transform"]
            string bomId = "CHE-005"
            string subsystem = "Chemistry"
            double weightGrams = 12
            rel material:binding = </AquilaSovereign/Materials/CHE_005_Mat>
        }
        def Material "CHE_005_Mat"
        {
            token outputs:surface.connect = </AquilaSovereign/Materials/CHE_005_Mat/Shader.outputs:surface>
            def Shader "Shader"
            {
                uniform token info:id = "UsdPreviewSurface"
                color3f inputs:diffuseColor = (0.400, 0.600, 0.000)
                float inputs:roughness = 0.5
                float inputs:metallic = 0.3
                token outputs:surface
            }
        }
        def Mesh "AUD_001"
        {
            float3[] extent = [(-35.0, -35.0, -6.0), (35.0, 35.0, 6.0)]
            int[] faceVertexCounts = [4, 4, 4, 4, 4, 4, 4, 4, 4, 4, 4, 4, 12, 12]
            int[] faceVertexIndices = [0, 1, 13, 12, 1, 2, 14, 13, 2, 3, 15, 14, 3, 4, 16, 15, 4, 5, 17, 16, 5, 6, 18, 17, 6, 7, 19, 18, 7, 8, 20, 19, 8, 9, 21, 20, 9, 10, 22, 21, 10, 11, 23, 22, 11, 0, 12, 23, 0, 1, 2, 3, 4, 5, 6, 7, 8, 9, 10, 11, 12, 13, 14, 15, 16, 17, 18, 19, 20, 21, 22, 23]
            point3f[] points = [(35.00,0.00,-6.00), (30.31,17.50,-6.00), (17.50,30.31,-6.00), (0.00,35.00,-6.00), (-17.50,30.31,-6.00), (-30.31,17.50,-6.00), (-35.00,0.00,-6.00), (-30.31,-17.50,-6.00), (-17.50,-30.31,-6.00), (-0.00,-35.00,-6.00), (17.50,-30.31,-6.00), (30.31,-17.50,-6.00), (35.00,0.00,6.00), (30.31,17.50,6.00), (17.50,30.31,6.00), (0.00,35.00,6.00), (-17.50,30.31,6.00), (-30.31,17.50,6.00), (-35.00,0.00,6.00), (-30.31,-17.50,6.00), (-17.50,-30.31,6.00), (-0.00,-35.00,6.00), (17.50,-30.31,6.00), (30.31,-17.50,6.00)]
            matrix4d xformOp:transform = ( (1,0,0,0), (0,1,0,0), (0,0,1,0), (80.00,100.00,60.00,1) )
            token[] xformOpOrder = ["xformOp:transform"]
            string bomId = "AUD-001"
            string subsystem = "Audio"
            double weightGrams = 80
            rel material:binding = </AquilaSovereign/Materials/AUD_001_Mat>
        }
        def Material "AUD_001_Mat"
        {
            token outputs:surface.connect = </AquilaSovereign/Materials/AUD_001_Mat/Shader.outputs:surface>
            def Shader "Shader"
            {
                uniform token info:id = "UsdPreviewSurface"
                color3f inputs:diffuseColor = (0.200, 0.000, 0.400)
                float inputs:roughness = 0.6
                token outputs:surface
            }
        }
        def Mesh "AUD_002"
        {
            float3[] extent = [(-1.8, -1.3, -0.5), (1.8, 1.3, 0.5)]
            int[] faceVertexCounts = [4, 4, 4, 4, 4, 4]
            int[] faceVertexIndices = [0,1,2,3, 4,5,6,7, 0,4,5,1, 1,5,6,2, 2,6,7,3, 3,7,4,0]
            point3f[] points = [(-1.8,-1.3,-0.5), (1.8,-1.3,-0.5), (1.8,1.3,-0.5), (-1.8,1.3,-0.5), (-1.8,-1.3,0.5), (1.8,-1.3,0.5), (1.8,1.3,0.5), (-1.8,1.3,0.5)]
            matrix4d xformOp:transform = ( (1,0,0,0), (0,1,0,0), (0,0,1,0), (80.00,120.00,60.00,1) )
            token[] xformOpOrder = ["xformOp:transform"]
            string bomId = "AUD-002"
            string subsystem = "Audio"
            double weightGrams = 1
            rel material:binding = </AquilaSovereign/Materials/AUD_002_Mat>
        }
        def Material "AUD_002_Mat"
        {
            token outputs:surface.connect = </AquilaSovereign/Materials/AUD_002_Mat/Shader.outputs:surface>
            def Shader "Shader"
            {
                uniform token info:id = "UsdPreviewSurface"
                color3f inputs:diffuseColor = (0.300, 0.000, 0.300)
                float inputs:roughness = 0.5
                float inputs:metallic = 0.3
                token outputs:surface
            }
        }
        def Mesh "ENV_001"
        {
            float3[] extent = [(-10.0, -7.5, -2.5), (10.0, 7.5, 2.5)]
            int[] faceVertexCounts = [4, 4, 4, 4, 4, 4]
            int[] faceVertexIndices = [0,1,2,3, 4,5,6,7, 0,4,5,1, 1,5,6,2, 2,6,7,3, 3,7,4,0]
            point3f[] points = [(-10.0,-7.5,-2.5), (10.0,-7.5,-2.5), (10.0,7.5,-2.5), (-10.0,7.5,-2.5), (-10.0,-7.5,2.5), (10.0,-7.5,2.5), (10.0,7.5,2.5), (-10.0,7.5,2.5)]
            matrix4d xformOp:transform = ( (1,0,0,0), (0,1,0,0), (0,0,1,0), (100.00,40.00,40.00,1) )
            token[] xformOpOrder = ["xformOp:transform"]
            string bomId = "ENV-001"
            string subsystem = "Env"
            double weightGrams = 6
            rel material:binding = </AquilaSovereign/Materials/ENV_001_Mat>
        }
        def Material "ENV_001_Mat"
        {
            token outputs:surface.connect = </AquilaSovereign/Materials/ENV_001_Mat/Shader.outputs:surface>
            def Shader "Shader"
            {
                uniform token info:id = "UsdPreviewSurface"
                color3f inputs:diffuseColor = (0.000, 0.400, 0.600)
                float inputs:roughness = 0.5
                float inputs:metallic = 0.3
                token outputs:surface
            }
        }
    }

    def Scope "Phase2_FireflyMount"
    {
    # Phase 2 — Firefly hybrid mount components
        def Mesh "PWR_FLY_001"
        {
            float3[] extent = [(-60.0, -40.0, -25.0), (60.0, 40.0, 25.0)]
            int[] faceVertexCounts = [4, 4, 4, 4, 4, 4]
            int[] faceVertexIndices = [0,1,2,3, 4,5,6,7, 0,4,5,1, 1,5,6,2, 2,6,7,3, 3,7,4,0]
            point3f[] points = [(-60.0,-40.0,-25.0), (60.0,-40.0,-25.0), (60.0,40.0,-25.0), (-60.0,40.0,-25.0), (-60.0,-40.0,25.0), (60.0,-40.0,25.0), (60.0,40.0,25.0), (-60.0,40.0,25.0)]
            matrix4d xformOp:transform = ( (1,0,0,0), (0,1,0,0), (0,0,1,0), (0.00,0.00,120.00,1) )
            token[] xformOpOrder = ["xformOp:transform"]
            string bomId = "PWR-FLY-001"
            string subsystem = "Power"
            double weightGrams = 450
            rel material:binding = </AquilaSovereign/Materials/PWR_FLY_001_Mat>
        }
        def Material "PWR_FLY_001_Mat"
        {
            token outputs:surface.connect = </AquilaSovereign/Materials/PWR_FLY_001_Mat/Shader.outputs:surface>
            def Shader "Shader"
            {
                uniform token info:id = "UsdPreviewSurface"
                color3f inputs:diffuseColor = (0.600, 0.500, 0.000)
                float inputs:roughness = 0.5
                float inputs:metallic = 0.3
                token outputs:surface
            }
        }
        def Mesh "THR_FLY_001"
        {
            float3[] extent = [(-200.0, -175.0, -12.5), (200.0, 175.0, 12.5)]
            int[] faceVertexCounts = [4, 4, 4, 4, 4, 4]
            int[] faceVertexIndices = [0,1,2,3, 4,5,6,7, 0,4,5,1, 1,5,6,2, 2,6,7,3, 3,7,4,0]
            point3f[] points = [(-200.0,-175.0,-12.5), (200.0,-175.0,-12.5), (200.0,175.0,-12.5), (-200.0,175.0,-12.5), (-200.0,-175.0,12.5), (200.0,-175.0,12.5), (200.0,175.0,12.5), (-200.0,175.0,12.5)]
            matrix4d xformOp:transform = ( (1,0,0,0), (0,1,0,0), (0,0,1,0), (0.00,0.00,160.00,1) )
            token[] xformOpOrder = ["xformOp:transform"]
            string bomId = "THR-FLY-001"
            string subsystem = "Thermal"
            double weightGrams = 280
            rel material:binding = </AquilaSovereign/Materials/THR_FLY_001_Mat>
        }
        def Material "THR_FLY_001_Mat"
        {
            token outputs:surface.connect = </AquilaSovereign/Materials/THR_FLY_001_Mat/Shader.outputs:surface>
            def Shader "Shader"
            {
                uniform token info:id = "UsdPreviewSurface"
                color3f inputs:diffuseColor = (0.400, 0.400, 0.500)
                float inputs:roughness = 0.5
                float inputs:metallic = 0.3
                token outputs:surface
            }
        }
        def Mesh "MNT_FLY_001"
        {
            float3[] extent = [(-40.0, -30.0, -20.0), (40.0, 30.0, 20.0)]
            int[] faceVertexCounts = [4, 4, 4, 4, 4, 4]
            int[] faceVertexIndices = [0,1,2,3, 4,5,6,7, 0,4,5,1, 1,5,6,2, 2,6,7,3, 3,7,4,0]
            point3f[] points = [(-40.0,-30.0,-20.0), (40.0,-30.0,-20.0), (40.0,30.0,-20.0), (-40.0,30.0,-20.0), (-40.0,-30.0,20.0), (40.0,-30.0,20.0), (40.0,30.0,20.0), (-40.0,30.0,20.0)]
            matrix4d xformOp:transform = ( (1,0,0,0), (0,1,0,0), (0,0,1,0), (200.00,200.00,100.00,1) )
            token[] xformOpOrder = ["xformOp:transform"]
            string bomId = "MNT-FLY-001"
            string subsystem = "Mount"
            double weightGrams = 320
            rel material:binding = </AquilaSovereign/Materials/MNT_FLY_001_Mat>
        }
        def Material "MNT_FLY_001_Mat"
        {
            token outputs:surface.connect = </AquilaSovereign/Materials/MNT_FLY_001_Mat/Shader.outputs:surface>
            def Shader "Shader"
            {
                uniform token info:id = "UsdPreviewSurface"
                color3f inputs:diffuseColor = (0.500, 0.500, 0.500)
                float inputs:roughness = 0.5
                float inputs:metallic = 0.3
                token outputs:surface
            }
        }
        def Mesh "STR_POD_001"
        {
            float3[] extent = [(-100.0, -75.0, -40.0), (100.0, 75.0, 40.0)]
            int[] faceVertexCounts = [4, 4, 4, 4, 4, 4]
            int[] faceVertexIndices = [0,1,2,3, 4,5,6,7, 0,4,5,1, 1,5,6,2, 2,6,7,3, 3,7,4,0]
            point3f[] points = [(-100.0,-75.0,-40.0), (100.0,-75.0,-40.0), (100.0,75.0,-40.0), (-100.0,75.0,-40.0), (-100.0,-75.0,40.0), (100.0,-75.0,40.0), (100.0,75.0,40.0), (-100.0,75.0,40.0)]
            matrix4d xformOp:transform = ( (1,0,0,0), (0,1,0,0), (0,0,1,0), (0.00,0.00,80.00,1) )
            token[] xformOpOrder = ["xformOp:transform"]
            string bomId = "STR-POD-001"
            string subsystem = "Pod"
            double weightGrams = 600
            rel material:binding = </AquilaSovereign/Materials/STR_POD_001_Mat>
        }
        def Material "STR_POD_001_Mat"
        {
            token outputs:surface.connect = </AquilaSovereign/Materials/STR_POD_001_Mat/Shader.outputs:surface>
            def Shader "Shader"
            {
                uniform token info:id = "UsdPreviewSurface"
                color3f inputs:diffuseColor = (0.300, 0.300, 0.300)
                float inputs:roughness = 0.5
                float inputs:metallic = 0.3
                token outputs:surface
            }
        }
        def Xform "STR_POD_002"
        {
            matrix4d xformOp:transform = ( (1,0,0,0), (0,1,0,0), (0,0,1,0), (0.00,0.00,0.00,1) )
            token[] xformOpOrder = ["xformOp:transform"]
            string bomId = "STR-POD-002"
            string subsystem = "Pod"
            double weightGrams = 3200
            def Mesh "Bar_00"
            {
                float3[] extent = [(-7.5, -7.5, -300.0), (7.5, 7.5, 300.0)]
                int[] faceVertexCounts = [4, 4, 4, 4, 4, 4]
                int[] faceVertexIndices = [0,1,2,3, 4,5,6,7, 0,4,5,1, 1,5,6,2, 2,6,7,3, 3,7,4,0]
                point3f[] points = [(-7.5,-7.5,-300.0),(7.5,-7.5,-300.0),(7.5,7.5,-300.0),(-7.5,7.5,-300.0),(-7.5,-7.5,300.0),(7.5,-7.5,300.0),(7.5,7.5,300.0),(-7.5,7.5,300.0)]
                matrix4d xformOp:transform = ( (1,0,0,0), (0,1,0,0), (0,0,1,0), (0.00,-250.00,-200.00,1) )
                token[] xformOpOrder = ["xformOp:transform"]
                rel material:binding = </AquilaSovereign/Materials/STR_POD_002_Mat>
            }
            def Mesh "Bar_01"
            {
                float3[] extent = [(-7.5, -7.5, -250.0), (7.5, 7.5, 250.0)]
                int[] faceVertexCounts = [4, 4, 4, 4, 4, 4]
                int[] faceVertexIndices = [0,1,2,3, 4,5,6,7, 0,4,5,1, 1,5,6,2, 2,6,7,3, 3,7,4,0]
                point3f[] points = [(-7.5,-7.5,-250.0),(7.5,-7.5,-250.0),(7.5,7.5,-250.0),(-7.5,7.5,-250.0),(-7.5,-7.5,250.0),(7.5,-7.5,250.0),(7.5,7.5,250.0),(-7.5,7.5,250.0)]
                matrix4d xformOp:transform = ( (1,0,0,0), (0,1,0,0), (0,0,1,0), (300.00,0.00,-200.00,1) )
                token[] xformOpOrder = ["xformOp:transform"]
                rel material:binding = </AquilaSovereign/Materials/STR_POD_002_Mat>
            }
            def Mesh "Bar_02"
            {
                float3[] extent = [(-7.5, -7.5, -300.0), (7.5, 7.5, 300.0)]
                int[] faceVertexCounts = [4, 4, 4, 4, 4, 4]
                int[] faceVertexIndices = [0,1,2,3, 4,5,6,7, 0,4,5,1, 1,5,6,2, 2,6,7,3, 3,7,4,0]
                point3f[] points = [(-7.5,-7.5,-300.0),(7.5,-7.5,-300.0),(7.5,7.5,-300.0),(-7.5,7.5,-300.0),(-7.5,-7.5,300.0),(7.5,-7.5,300.0),(7.5,7.5,300.0),(-7.5,7.5,300.0)]
                matrix4d xformOp:transform = ( (1,0,0,0), (0,1,0,0), (0,0,1,0), (0.00,250.00,-200.00,1) )
                token[] xformOpOrder = ["xformOp:transform"]
                rel material:binding = </AquilaSovereign/Materials/STR_POD_002_Mat>
            }
            def Mesh "Bar_03"
            {
                float3[] extent = [(-7.5, -7.5, -250.0), (7.5, 7.5, 250.0)]
                int[] faceVertexCounts = [4, 4, 4, 4, 4, 4]
                int[] faceVertexIndices = [0,1,2,3, 4,5,6,7, 0,4,5,1, 1,5,6,2, 2,6,7,3, 3,7,4,0]
                point3f[] points = [(-7.5,-7.5,-250.0),(7.5,-7.5,-250.0),(7.5,7.5,-250.0),(-7.5,7.5,-250.0),(-7.5,-7.5,250.0),(7.5,-7.5,250.0),(7.5,7.5,250.0),(-7.5,7.5,250.0)]
                matrix4d xformOp:transform = ( (1,0,0,0), (0,1,0,0), (0,0,1,0), (-300.00,0.00,-200.00,1) )
                token[] xformOpOrder = ["xformOp:transform"]
                rel material:binding = </AquilaSovereign/Materials/STR_POD_002_Mat>
            }
            def Mesh "Bar_04"
            {
                float3[] extent = [(-7.5, -7.5, -300.0), (7.5, 7.5, 300.0)]
                int[] faceVertexCounts = [4, 4, 4, 4, 4, 4]
                int[] faceVertexIndices = [0,1,2,3, 4,5,6,7, 0,4,5,1, 1,5,6,2, 2,6,7,3, 3,7,4,0]
                point3f[] points = [(-7.5,-7.5,-300.0),(7.5,-7.5,-300.0),(7.5,7.5,-300.0),(-7.5,7.5,-300.0),(-7.5,-7.5,300.0),(7.5,-7.5,300.0),(7.5,7.5,300.0),(-7.5,7.5,300.0)]
                matrix4d xformOp:transform = ( (1,0,0,0), (0,1,0,0), (0,0,1,0), (0.00,-250.00,200.00,1) )
                token[] xformOpOrder = ["xformOp:transform"]
                rel material:binding = </AquilaSovereign/Materials/STR_POD_002_Mat>
            }
            def Mesh "Bar_05"
            {
                float3[] extent = [(-7.5, -7.5, -250.0), (7.5, 7.5, 250.0)]
                int[] faceVertexCounts = [4, 4, 4, 4, 4, 4]
                int[] faceVertexIndices = [0,1,2,3, 4,5,6,7, 0,4,5,1, 1,5,6,2, 2,6,7,3, 3,7,4,0]
                point3f[] points = [(-7.5,-7.5,-250.0),(7.5,-7.5,-250.0),(7.5,7.5,-250.0),(-7.5,7.5,-250.0),(-7.5,-7.5,250.0),(7.5,-7.5,250.0),(7.5,7.5,250.0),(-7.5,7.5,250.0)]
                matrix4d xformOp:transform = ( (1,0,0,0), (0,1,0,0), (0,0,1,0), (300.00,0.00,200.00,1) )
                token[] xformOpOrder = ["xformOp:transform"]
                rel material:binding = </AquilaSovereign/Materials/STR_POD_002_Mat>
            }
            def Mesh "Bar_06"
            {
                float3[] extent = [(-7.5, -7.5, -300.0), (7.5, 7.5, 300.0)]
                int[] faceVertexCounts = [4, 4, 4, 4, 4, 4]
                int[] faceVertexIndices = [0,1,2,3, 4,5,6,7, 0,4,5,1, 1,5,6,2, 2,6,7,3, 3,7,4,0]
                point3f[] points = [(-7.5,-7.5,-300.0),(7.5,-7.5,-300.0),(7.5,7.5,-300.0),(-7.5,7.5,-300.0),(-7.5,-7.5,300.0),(7.5,-7.5,300.0),(7.5,7.5,300.0),(-7.5,7.5,300.0)]
                matrix4d xformOp:transform = ( (1,0,0,0), (0,1,0,0), (0,0,1,0), (0.00,250.00,200.00,1) )
                token[] xformOpOrder = ["xformOp:transform"]
                rel material:binding = </AquilaSovereign/Materials/STR_POD_002_Mat>
            }
            def Mesh "Bar_07"
            {
                float3[] extent = [(-7.5, -7.5, -250.0), (7.5, 7.5, 250.0)]
                int[] faceVertexCounts = [4, 4, 4, 4, 4, 4]
                int[] faceVertexIndices = [0,1,2,3, 4,5,6,7, 0,4,5,1, 1,5,6,2, 2,6,7,3, 3,7,4,0]
                point3f[] points = [(-7.5,-7.5,-250.0),(7.5,-7.5,-250.0),(7.5,7.5,-250.0),(-7.5,7.5,-250.0),(-7.5,-7.5,250.0),(7.5,-7.5,250.0),(7.5,7.5,250.0),(-7.5,7.5,250.0)]
                matrix4d xformOp:transform = ( (1,0,0,0), (0,1,0,0), (0,0,1,0), (-300.00,0.00,200.00,1) )
                token[] xformOpOrder = ["xformOp:transform"]
                rel material:binding = </AquilaSovereign/Materials/STR_POD_002_Mat>
            }
            def Mesh "Bar_08"
            {
                float3[] extent = [(-7.5, -7.5, -200.0), (7.5, 7.5, 200.0)]
                int[] faceVertexCounts = [4, 4, 4, 4, 4, 4]
                int[] faceVertexIndices = [0,1,2,3, 4,5,6,7, 0,4,5,1, 1,5,6,2, 2,6,7,3, 3,7,4,0]
                point3f[] points = [(-7.5,-7.5,-200.0),(7.5,-7.5,-200.0),(7.5,7.5,-200.0),(-7.5,7.5,-200.0),(-7.5,-7.5,200.0),(7.5,-7.5,200.0),(7.5,7.5,200.0),(-7.5,7.5,200.0)]
                matrix4d xformOp:transform = ( (1,0,0,0), (0,1,0,0), (0,0,1,0), (-300.00,-250.00,0.00,1) )
                token[] xformOpOrder = ["xformOp:transform"]
                rel material:binding = </AquilaSovereign/Materials/STR_POD_002_Mat>
            }
            def Mesh "Bar_09"
            {
                float3[] extent = [(-7.5, -7.5, -200.0), (7.5, 7.5, 200.0)]
                int[] faceVertexCounts = [4, 4, 4, 4, 4, 4]
                int[] faceVertexIndices = [0,1,2,3, 4,5,6,7, 0,4,5,1, 1,5,6,2, 2,6,7,3, 3,7,4,0]
                point3f[] points = [(-7.5,-7.5,-200.0),(7.5,-7.5,-200.0),(7.5,7.5,-200.0),(-7.5,7.5,-200.0),(-7.5,-7.5,200.0),(7.5,-7.5,200.0),(7.5,7.5,200.0),(-7.5,7.5,200.0)]
                matrix4d xformOp:transform = ( (1,0,0,0), (0,1,0,0), (0,0,1,0), (300.00,-250.00,0.00,1) )
                token[] xformOpOrder = ["xformOp:transform"]
                rel material:binding = </AquilaSovereign/Materials/STR_POD_002_Mat>
            }
            def Mesh "Bar_10"
            {
                float3[] extent = [(-7.5, -7.5, -200.0), (7.5, 7.5, 200.0)]
                int[] faceVertexCounts = [4, 4, 4, 4, 4, 4]
                int[] faceVertexIndices = [0,1,2,3, 4,5,6,7, 0,4,5,1, 1,5,6,2, 2,6,7,3, 3,7,4,0]
                point3f[] points = [(-7.5,-7.5,-200.0),(7.5,-7.5,-200.0),(7.5,7.5,-200.0),(-7.5,7.5,-200.0),(-7.5,-7.5,200.0),(7.5,-7.5,200.0),(7.5,7.5,200.0),(-7.5,7.5,200.0)]
                matrix4d xformOp:transform = ( (1,0,0,0), (0,1,0,0), (0,0,1,0), (300.00,250.00,0.00,1) )
                token[] xformOpOrder = ["xformOp:transform"]
                rel material:binding = </AquilaSovereign/Materials/STR_POD_002_Mat>
            }
            def Mesh "Bar_11"
            {
                float3[] extent = [(-7.5, -7.5, -200.0), (7.5, 7.5, 200.0)]
                int[] faceVertexCounts = [4, 4, 4, 4, 4, 4]
                int[] faceVertexIndices = [0,1,2,3, 4,5,6,7, 0,4,5,1, 1,5,6,2, 2,6,7,3, 3,7,4,0]
                point3f[] points = [(-7.5,-7.5,-200.0),(7.5,-7.5,-200.0),(7.5,7.5,-200.0),(-7.5,7.5,-200.0),(-7.5,-7.5,200.0),(7.5,-7.5,200.0),(7.5,7.5,200.0),(-7.5,7.5,200.0)]
                matrix4d xformOp:transform = ( (1,0,0,0), (0,1,0,0), (0,0,1,0), (-300.00,250.00,0.00,1) )
                token[] xformOpOrder = ["xformOp:transform"]
                rel material:binding = </AquilaSovereign/Materials/STR_POD_002_Mat>
            }
        }
        def Material "STR_POD_002_Mat"
        {
            token outputs:surface.connect = </AquilaSovereign/Materials/STR_POD_002_Mat/Shader.outputs:surface>
            def Shader "Shader"
            {
                uniform token info:id = "UsdPreviewSurface"
                color3f inputs:diffuseColor = (0.250, 0.250, 0.300)
                float inputs:metallic = 0.6
                float inputs:roughness = 0.4
                token outputs:surface
            }
        }
        def Mesh "STR_POD_003"
        {
            float3[] extent = [(-125.0, -75.0, -60.0), (125.0, 75.0, 60.0)]
            int[] faceVertexCounts = [4, 4, 4, 4, 4, 4]
            int[] faceVertexIndices = [0,1,2,3, 4,5,6,7, 0,4,5,1, 1,5,6,2, 2,6,7,3, 3,7,4,0]
            point3f[] points = [(-125.0,-75.0,-60.0), (125.0,-75.0,-60.0), (125.0,75.0,-60.0), (-125.0,75.0,-60.0), (-125.0,-75.0,60.0), (125.0,-75.0,60.0), (125.0,75.0,60.0), (-125.0,75.0,60.0)]
            matrix4d xformOp:transform = ( (1,0,0,0), (0,1,0,0), (0,0,1,0), (0.00,-200.00,-100.00,1) )
            token[] xformOpOrder = ["xformOp:transform"]
            string bomId = "STR-POD-003"
            string subsystem = "Pod"
            double weightGrams = 1200
            rel material:binding = </AquilaSovereign/Materials/STR_POD_003_Mat>
        }
        def Material "STR_POD_003_Mat"
        {
            token outputs:surface.connect = </AquilaSovereign/Materials/STR_POD_003_Mat/Shader.outputs:surface>
            def Shader "Shader"
            {
                uniform token info:id = "UsdPreviewSurface"
                color3f inputs:diffuseColor = (0.400, 0.400, 0.200)
                float inputs:roughness = 0.5
                float inputs:metallic = 0.3
                token outputs:surface
            }
        }
        def Mesh "ACT_REV_001"
        {
            float3[] extent = [(-40.0, -40.0, -25.0), (40.0, 40.0, 25.0)]
            int[] faceVertexCounts = [4, 4, 4, 4, 4, 4, 4, 4, 4, 4, 4, 4, 12, 12]
            int[] faceVertexIndices = [0, 1, 13, 12, 1, 2, 14, 13, 2, 3, 15, 14, 3, 4, 16, 15, 4, 5, 17, 16, 5, 6, 18, 17, 6, 7, 19, 18, 7, 8, 20, 19, 8, 9, 21, 20, 9, 10, 22, 21, 10, 11, 23, 22, 11, 0, 12, 23, 0, 1, 2, 3, 4, 5, 6, 7, 8, 9, 10, 11, 12, 13, 14, 15, 16, 17, 18, 19, 20, 21, 22, 23]
            point3f[] points = [(40.00,0.00,-25.00), (34.64,20.00,-25.00), (20.00,34.64,-25.00), (0.00,40.00,-25.00), (-20.00,34.64,-25.00), (-34.64,20.00,-25.00), (-40.00,0.00,-25.00), (-34.64,-20.00,-25.00), (-20.00,-34.64,-25.00), (-0.00,-40.00,-25.00), (20.00,-34.64,-25.00), (34.64,-20.00,-25.00), (40.00,0.00,25.00), (34.64,20.00,25.00), (20.00,34.64,25.00), (0.00,40.00,25.00), (-20.00,34.64,25.00), (-34.64,20.00,25.00), (-40.00,0.00,25.00), (-34.64,-20.00,25.00), (-20.00,-34.64,25.00), (-0.00,-40.00,25.00), (20.00,-34.64,25.00), (34.64,-20.00,25.00)]
            matrix4d xformOp:transform = ( (1,0,0,0), (0,1,0,0), (0,0,1,0), (150.00,-200.00,-100.00,1) )
            token[] xformOpOrder = ["xformOp:transform"]
            string bomId = "ACT-REV-001"
            string subsystem = "Actuation"
            double weightGrams = 250
            rel material:binding = </AquilaSovereign/Materials/ACT_REV_001_Mat>
        }
        def Material "ACT_REV_001_Mat"
        {
            token outputs:surface.connect = </AquilaSovereign/Materials/ACT_REV_001_Mat/Shader.outputs:surface>
            def Shader "Shader"
            {
                uniform token info:id = "UsdPreviewSurface"
                color3f inputs:diffuseColor = (0.800, 0.100, 0.100)
                float inputs:roughness = 0.6
                token outputs:surface
            }
        }
        def Mesh "ACT_REV_002"
        {
            float3[] extent = [(-17.5, -17.5, -17.5), (17.5, 17.5, 17.5)]
            int[] faceVertexCounts = [4, 4, 4, 4, 4, 4, 4, 4, 4, 4, 4, 4, 12, 12]
            int[] faceVertexIndices = [0, 1, 13, 12, 1, 2, 14, 13, 2, 3, 15, 14, 3, 4, 16, 15, 4, 5, 17, 16, 5, 6, 18, 17, 6, 7, 19, 18, 7, 8, 20, 19, 8, 9, 21, 20, 9, 10, 22, 21, 10, 11, 23, 22, 11, 0, 12, 23, 0, 1, 2, 3, 4, 5, 6, 7, 8, 9, 10, 11, 12, 13, 14, 15, 16, 17, 18, 19, 20, 21, 22, 23]
            point3f[] points = [(17.50,0.00,-17.50), (15.16,8.75,-17.50), (8.75,15.16,-17.50), (0.00,17.50,-17.50), (-8.75,15.16,-17.50), (-15.16,8.75,-17.50), (-17.50,0.00,-17.50), (-15.16,-8.75,-17.50), (-8.75,-15.16,-17.50), (-0.00,-17.50,-17.50), (8.75,-15.16,-17.50), (15.16,-8.75,-17.50), (17.50,0.00,17.50), (15.16,8.75,17.50), (8.75,15.16,17.50), (0.00,17.50,17.50), (-8.75,15.16,17.50), (-15.16,8.75,17.50), (-17.50,0.00,17.50), (-15.16,-8.75,17.50), (-8.75,-15.16,17.50), (-0.00,-17.50,17.50), (8.75,-15.16,17.50), (15.16,-8.75,17.50)]
            matrix4d xformOp:transform = ( (1,0,0,0), (0,1,0,0), (0,0,1,0), (150.00,-200.00,-60.00,1) )
            token[] xformOpOrder = ["xformOp:transform"]
            string bomId = "ACT-REV-002"
            string subsystem = "Actuation"
            double weightGrams = 142
            rel material:binding = </AquilaSovereign/Materials/ACT_REV_002_Mat>
        }
        def Material "ACT_REV_002_Mat"
        {
            token outputs:surface.connect = </AquilaSovereign/Materials/ACT_REV_002_Mat/Shader.outputs:surface>
            def Shader "Shader"
            {
                uniform token info:id = "UsdPreviewSurface"
                color3f inputs:diffuseColor = (0.700, 0.100, 0.100)
                float inputs:roughness = 0.6
                token outputs:surface
            }
        }
        def Mesh "CTL_REV_001"
        {
            float3[] extent = [(-35.0, -17.5, -7.5), (35.0, 17.5, 7.5)]
            int[] faceVertexCounts = [4, 4, 4, 4, 4, 4]
            int[] faceVertexIndices = [0,1,2,3, 4,5,6,7, 0,4,5,1, 1,5,6,2, 2,6,7,3, 3,7,4,0]
            point3f[] points = [(-35.0,-17.5,-7.5), (35.0,-17.5,-7.5), (35.0,17.5,-7.5), (-35.0,17.5,-7.5), (-35.0,-17.5,7.5), (35.0,-17.5,7.5), (35.0,17.5,7.5), (-35.0,17.5,7.5)]
            matrix4d xformOp:transform = ( (1,0,0,0), (0,1,0,0), (0,0,1,0), (150.00,-150.00,-60.00,1) )
            token[] xformOpOrder = ["xformOp:transform"]
            string bomId = "CTL-REV-001"
            string subsystem = "Control"
            double weightGrams = 80
            rel material:binding = </AquilaSovereign/Materials/CTL_REV_001_Mat>
        }
        def Material "CTL_REV_001_Mat"
        {
            token outputs:surface.connect = </AquilaSovereign/Materials/CTL_REV_001_Mat/Shader.outputs:surface>
            def Shader "Shader"
            {
                uniform token info:id = "UsdPreviewSurface"
                color3f inputs:diffuseColor = (0.100, 0.100, 0.100)
                float inputs:roughness = 0.5
                float inputs:metallic = 0.3
                token outputs:surface
            }
        }
    }

    def Scope "Phase3_BioIntel"
    {
    # Phase 3 — Bio-Intel DNA identification stack
        def Mesh "BIO_001"
        {
            float3[] extent = [(-52.5, -11.5, -16.5), (52.5, 11.5, 16.5)]
            int[] faceVertexCounts = [4, 4, 4, 4, 4, 4]
            int[] faceVertexIndices = [0,1,2,3, 4,5,6,7, 0,4,5,1, 1,5,6,2, 2,6,7,3, 3,7,4,0]
            point3f[] points = [(-52.5,-11.5,-16.5), (52.5,-11.5,-16.5), (52.5,11.5,-16.5), (-52.5,11.5,-16.5), (-52.5,-11.5,16.5), (52.5,-11.5,16.5), (52.5,11.5,16.5), (-52.5,11.5,16.5)]
            matrix4d xformOp:transform = ( (1,0,0,0), (0,1,0,0), (0,0,1,0), (-150.00,-60.00,40.00,1) )
            token[] xformOpOrder = ["xformOp:transform"]
            string bomId = "BIO-001"
            string subsystem = "Bio"
            double weightGrams = 87
            rel material:binding = </AquilaSovereign/Materials/BIO_001_Mat>
        }
        def Material "BIO_001_Mat"
        {
            token outputs:surface.connect = </AquilaSovereign/Materials/BIO_001_Mat/Shader.outputs:surface>
            def Shader "Shader"
            {
                uniform token info:id = "UsdPreviewSurface"
                color3f inputs:diffuseColor = (0.000, 0.700, 0.300)
                float inputs:roughness = 0.5
                float inputs:metallic = 0.3
                token outputs:surface
            }
        }
        def Mesh "BIO_002"
        {
            float3[] extent = [(-30.0, -20.0, -15.0), (30.0, 20.0, 15.0)]
            int[] faceVertexCounts = [4, 4, 4, 4, 4, 4]
            int[] faceVertexIndices = [0,1,2,3, 4,5,6,7, 0,4,5,1, 1,5,6,2, 2,6,7,3, 3,7,4,0]
            point3f[] points = [(-30.0,-20.0,-15.0), (30.0,-20.0,-15.0), (30.0,20.0,-15.0), (-30.0,20.0,-15.0), (-30.0,-20.0,15.0), (30.0,-20.0,15.0), (30.0,20.0,15.0), (-30.0,20.0,15.0)]
            matrix4d xformOp:transform = ( (1,0,0,0), (0,1,0,0), (0,0,1,0), (-150.00,-30.00,40.00,1) )
            token[] xformOpOrder = ["xformOp:transform"]
            string bomId = "BIO-002"
            string subsystem = "Bio"
            double weightGrams = 120
            rel material:binding = </AquilaSovereign/Materials/BIO_002_Mat>
        }
        def Material "BIO_002_Mat"
        {
            token outputs:surface.connect = </AquilaSovereign/Materials/BIO_002_Mat/Shader.outputs:surface>
            def Shader "Shader"
            {
                uniform token info:id = "UsdPreviewSurface"
                color3f inputs:diffuseColor = (0.000, 0.500, 0.200)
                float inputs:roughness = 0.5
                float inputs:metallic = 0.3
                token outputs:surface
            }
        }
        def Mesh "BIO_003"
        {
            float3[] extent = [(-100.0, -40.0, -40.0), (100.0, 40.0, 40.0)]
            int[] faceVertexCounts = [4, 4, 4, 4, 4, 4]
            int[] faceVertexIndices = [0,1,2,3, 4,5,6,7, 0,4,5,1, 1,5,6,2, 2,6,7,3, 3,7,4,0]
            point3f[] points = [(-100.0,-40.0,-40.0), (100.0,-40.0,-40.0), (100.0,40.0,-40.0), (-100.0,40.0,-40.0), (-100.0,-40.0,40.0), (100.0,-40.0,40.0), (100.0,40.0,40.0), (-100.0,40.0,40.0)]
            matrix4d xformOp:transform = ( (1,0,0,0), (0,1,0,0), (0,0,1,0), (-200.00,0.00,-60.00,1) )
            token[] xformOpOrder = ["xformOp:transform"]
            string bomId = "BIO-003"
            string subsystem = "Bio"
            double weightGrams = 400
            rel material:binding = </AquilaSovereign/Materials/BIO_003_Mat>
        }
        def Material "BIO_003_Mat"
        {
            token outputs:surface.connect = </AquilaSovereign/Materials/BIO_003_Mat/Shader.outputs:surface>
            def Shader "Shader"
            {
                uniform token info:id = "UsdPreviewSurface"
                color3f inputs:diffuseColor = (0.000, 0.400, 0.100)
                float inputs:roughness = 0.5
                float inputs:metallic = 0.3
                token outputs:surface
            }
        }
        def Mesh "BIO_004"
        {
            float3[] extent = [(-75.0, -75.0, -30.0), (75.0, 75.0, 30.0)]
            int[] faceVertexCounts = [4, 4, 4, 4, 4, 4, 4, 4, 4, 4, 4, 4, 12, 12]
            int[] faceVertexIndices = [0, 1, 13, 12, 1, 2, 14, 13, 2, 3, 15, 14, 3, 4, 16, 15, 4, 5, 17, 16, 5, 6, 18, 17, 6, 7, 19, 18, 7, 8, 20, 19, 8, 9, 21, 20, 9, 10, 22, 21, 10, 11, 23, 22, 11, 0, 12, 23, 0, 1, 2, 3, 4, 5, 6, 7, 8, 9, 10, 11, 12, 13, 14, 15, 16, 17, 18, 19, 20, 21, 22, 23]
            point3f[] points = [(75.00,0.00,-30.00), (64.95,37.50,-30.00), (37.50,64.95,-30.00), (0.00,75.00,-30.00), (-37.50,64.95,-30.00), (-64.95,37.50,-30.00), (-75.00,0.00,-30.00), (-64.95,-37.50,-30.00), (-37.50,-64.95,-30.00), (-0.00,-75.00,-30.00), (37.50,-64.95,-30.00), (64.95,-37.50,-30.00), (75.00,0.00,30.00), (64.95,37.50,30.00), (37.50,64.95,30.00), (0.00,75.00,30.00), (-37.50,64.95,30.00), (-64.95,37.50,30.00), (-75.00,0.00,30.00), (-64.95,-37.50,30.00), (-37.50,-64.95,30.00), (-0.00,-75.00,30.00), (37.50,-64.95,30.00), (64.95,-37.50,30.00)]
            matrix4d xformOp:transform = ( (1,0,0,0), (0,1,0,0), (0,0,1,0), (-200.00,0.00,-120.00,1) )
            token[] xformOpOrder = ["xformOp:transform"]
            string bomId = "BIO-004"
            string subsystem = "Bio"
            double weightGrams = 280
            rel material:binding = </AquilaSovereign/Materials/BIO_004_Mat>
        }
        def Material "BIO_004_Mat"
        {
            token outputs:surface.connect = </AquilaSovereign/Materials/BIO_004_Mat/Shader.outputs:surface>
            def Shader "Shader"
            {
                uniform token info:id = "UsdPreviewSurface"
                color3f inputs:diffuseColor = (0.100, 0.500, 0.000)
                float inputs:roughness = 0.6
                token outputs:surface
            }
        }
    }

    def Scope "SensorBeams"
    {
        def Mesh "GPR_Cone"
        {
            float3[] extent = [(0, 0, 0), (3000, 3000, 9000)]
            int[] faceVertexCounts = [3, 3, 3, 3, 3, 3, 3, 3]
            int[] faceVertexIndices = [0,1,2, 0,2,3, 0,3,4, 0,4,5, 0,5,6, 0,6,7, 0,7,8, 0,8,1]
            point3f[] points = [(0,0,0), (2000,-2000,9000), (-2000,-2000,9000), (-2000,2000,9000), (2000,2000,9000), (3000,0,9000), (0,3000,9000), (-3000,0,9000), (0,-3000,9000)]
            matrix4d xformOp:transform = ( (1,0,0,0), (0,1,0,0), (0,0,1,0), (0,-120,-40,1) )
            token[] xformOpOrder = ["xformOp:transform"]
            rel material:binding = </AquilaSovereign/SensorBeams/GPR_Cone_Mat>
        }
        def Material "GPR_Cone_Mat"
        {
            token outputs:surface.connect = </AquilaSovereign/SensorBeams/GPR_Cone_Mat/Shader.outputs:surface>
            def Shader "Shader"
            {
                uniform token info:id = "UsdPreviewSurface"
                color3f inputs:diffuseColor = (0.0, 1.0, 0.5)
                float inputs:opacity = 0.15
                token outputs:surface
            }
        }
    }

    def Scope "InspectionCamera"
    {
        def Camera "OrbitCamera"
        {
            float focalLength = 24
            float horizontalAperture = 36
            float verticalAperture = 24
            float clippingRange = (10, 100000)
            double3 xformOp:translate = (2500, 1500, 2500)
            double3 xformOp:rotateXYZ = (-20, 35, 0)
            token[] xformOpOrder = ["xformOp:translate", "xformOp:rotateXYZ"]
            double3[] xformOp:translate.timeSamples = {
                1: (2999.93, 1505.00, 20.94),
                31: (2930.02, 1652.53, 644.21),
                61: (2732.05, 1786.43, 1239.31),
                91: (2414.68, 1894.75, 1780.26),
                121: (1991.78, 1967.81, 2243.39),
                151: (1481.83, 1999.08, 2608.48),
                181: (907.11, 1985.76, 2859.57),
                211: (292.75, 1929.06, 2985.68),
                241: (-334.41, 1834.03, 2981.30),
                271: (-946.95, 1709.16, 2846.63),
                301: (-1518.10, 1565.61, 2587.54),
                331: (-2022.91, 1416.19, 2215.37),
                361: (-2439.30, 1274.27, 1746.37),
                391: (-2749.09, 1152.50, 1201.05),
                421: (-2938.73, 1061.78, 603.23),
                451: (-2999.93, 1010.21, -20.94),
                481: (-2930.02, 1002.38, -644.21),
                511: (-2732.05, 1039.01, -1239.31),
                541: (-2414.68, 1116.81, -1780.26),
                571: (-1991.78, 1228.84, -2243.39),
                601: (-1481.83, 1365.10, -2608.48),
                631: (-907.11, 1513.41, -2859.57),
                661: (-292.75, 1660.51, -2985.68),
                691: (334.41, 1793.28, -2981.30),
                721: (946.95, 1899.86, -2846.63),
                751: (1518.10, 1970.71, -2587.54),
                781: (2022.91, 1999.52, -2215.37),
                811: (2439.30, 1983.70, -1746.37),
                841: (2749.09, 1924.68, -1201.05),
                871: (2938.73, 1827.72, -603.23),
            }
        }
    }

}